<?xml version="1.0" encoding="UTF-8"?>
<svg xmlns="http://www.w3.org/2000/svg" xmlns:xlink="http://www.w3.org/1999/xlink" width="485.5pt" height="476.4pt" viewBox="0 0 485.5 476.4" version="1.1">
<defs>
<clipPath id="clip1">
  <path d="M 296 343 L 442 343 L 442 476.398438 L 296 476.398438 Z M 296 343 "/>
</clipPath>
<clipPath id="clip2">
  <path d="M 32 342 L 176 342 L 176 476.398438 L 32 476.398438 Z M 32 342 "/>
</clipPath>
<clipPath id="clip3">
  <path d="M 283 408 L 374 408 L 374 476.398438 L 283 476.398438 Z M 283 408 "/>
</clipPath>
<clipPath id="clip4">
  <path d="M 100 404 L 191 404 L 191 476.398438 L 100 476.398438 Z M 100 404 "/>
</clipPath>
<clipPath id="clip5">
  <path d="M 100 364 L 375 364 L 375 476.398438 L 100 476.398438 Z M 100 364 "/>
</clipPath>
</defs>
<g id="surface1">
<path style="fill-rule:evenodd;fill:rgb(89.0625%,0%,8.616638%);fill-opacity:1;stroke-width:2.16;stroke-linecap:butt;stroke-linejoin:miter;stroke:rgb(10.594177%,9.812927%,9.423828%);stroke-opacity:1;stroke-miterlimit:4;" d="M 2328.320313 205.484375 C 1845.9375 205.484375 1401.640625 368.414063 1047.148438 642.085938 C 1048.789063 643.257813 1050.390625 644.546875 1051.914063 645.953125 L 1052.148438 646.109375 L 1052.695313 646.65625 C 1064.6875 657.671875 1071.367188 672.671875 1072.421875 688.023438 C 1073.4375 703.492188 1068.75 719.429688 1058.085938 732.046875 L 1058.046875 732.242188 L 1057.851563 732.476563 L 827.929688 994.976563 C 865.273438 1044.78125 871.953125 1115.25 839.414063 1172.75 L 744.960938 1339.703125 C 702.539063 1414.664063 608.867188 1440.601563 535.859375 1397.945313 L 509.84375 1472.984375 C 572.1875 1509.9375 603.007813 1588.726563 579.335938 1661.578125 L 519.726563 1844.859375 C 493.515625 1925.5625 409.6875 1970.445313 331.132813 1947.203125 L 320.273438 2031.578125 C 380.351563 2051.265625 425.234375 2108.179688 428.007813 2176.65625 L 432.734375 2294.625 L 2328.320313 2294.625 Z M 2328.320313 205.484375 " transform="matrix(0.1,0,0,-0.1,0,476.4)"/>
<path style=" stroke:none;fill-rule:evenodd;fill:rgb(100%,100%,100%);fill-opacity:1;" d="M 232.832031 246.9375 L 43.273438 246.9375 L 43.574219 239.417969 C 43.875 231.890625 38.996094 225.324219 32.230469 223.410156 L 32.996094 218.414063 C 39.398438 218.292969 45.34375 214.023438 47.414063 207.40625 L 53.179688 189.011719 C 55.628906 181.195313 51.84375 172.773438 44.695313 169.542969 L 47.867188 161.492188 L 50.167969 162.550781 C 57.910156 166.109375 67.070313 162.488281 70.519531 154.496094 L 78.144531 136.835938 C 81.019531 130.175781 79.0625 122.503906 73.847656 118.070313 L 86.355469 101.480469 C 87.820313 99.539063 88.066406 96.988281 87.191406 94.855469 C 124.9375 58.460938 176.269531 36.066406 232.832031 36.066406 Z M 232.832031 246.9375 "/>
<path style=" stroke:none;fill-rule:evenodd;fill:rgb(100%,100%,100%);fill-opacity:1;" d="M 442.714844 246.9375 L 232.832031 246.9375 L 232.832031 455.851563 L 232.886719 455.851563 C 348.4375 455.820313 442.183594 362.367188 442.714844 246.9375 Z M 442.714844 246.9375 "/>
<path style="fill-rule:evenodd;fill:rgb(89.0625%,0%,8.616638%);fill-opacity:1;stroke-width:2.16;stroke-linecap:butt;stroke-linejoin:miter;stroke:rgb(10.594177%,9.812927%,9.423828%);stroke-opacity:1;stroke-miterlimit:4;" d="M 2328.320313 4403.335938 C 2329.101563 4403.335938 2329.84375 4403.296875 2330.625 4403.296875 C 3488.59375 4402.046875 4427.265625 3462.671875 4427.265625 2304.429688 C 4427.265625 2301.304688 4427.148438 2298.257813 4427.148438 2295.171875 L 4427.148438 2294.625 L 2328.320313 2294.625 Z M 2328.320313 4403.335938 " transform="matrix(0.1,0,0,-0.1,0,476.4)"/>
<path style=" stroke:none;fill-rule:evenodd;fill:rgb(10.594177%,9.812927%,9.423828%);fill-opacity:1;" d="M 43.378906 244.320313 L 425.484375 244.320313 L 425.484375 247.597656 L 43.246094 247.597656 Z M 43.378906 244.320313 "/>
<path style=" stroke:none;fill-rule:evenodd;fill:rgb(10.594177%,9.812927%,9.423828%);fill-opacity:1;" d="M 230.921875 447.304688 L 234.199219 447.304688 L 234.199219 44.609375 L 230.921875 44.609375 Z M 230.921875 447.304688 "/>
<path style="fill-rule:evenodd;fill:rgb(100%,100%,100%);fill-opacity:1;stroke-width:51.024;stroke-linecap:butt;stroke-linejoin:miter;stroke:rgb(10.594177%,9.812927%,9.423828%);stroke-opacity:1;stroke-miterlimit:4;" d="M 2155.742188 990.914063 C 2048.125 835.132813 1800.976563 891.851563 1792.1875 1089.742188 C 1892.109375 1004.898438 2013.320313 969.039063 2155.742188 990.914063 Z M 2155.742188 990.914063 " transform="matrix(0.1,0,0,-0.1,0,476.4)"/>
<path style="fill-rule:evenodd;fill:rgb(100%,100%,100%);fill-opacity:1;stroke-width:51.024;stroke-linecap:butt;stroke-linejoin:miter;stroke:rgb(10.594177%,9.812927%,9.423828%);stroke-opacity:1;stroke-miterlimit:4;" d="M 2528.828125 990.914063 C 2641.5625 844.195313 2890.117188 905.992188 2892.382813 1089.742188 C 2766.367188 993.296875 2651.015625 957.476563 2528.828125 990.914063 Z M 2528.828125 990.914063 " transform="matrix(0.1,0,0,-0.1,0,476.4)"/>
<path style="fill-rule:evenodd;fill:rgb(100%,100%,100%);fill-opacity:1;stroke-width:51.024;stroke-linecap:butt;stroke-linejoin:miter;stroke:rgb(10.594177%,9.812927%,9.423828%);stroke-opacity:1;stroke-miterlimit:4;" d="M 2347.070313 1080.171875 C 2438.085938 992.867188 2409.335938 883.882813 2347.070313 777.164063 C 2283.046875 881.382813 2240.351563 984.507813 2347.070313 1080.171875 Z M 2347.070313 1080.171875 " transform="matrix(0.1,0,0,-0.1,0,476.4)"/>
<path style="fill-rule:evenodd;fill:rgb(100%,100%,100%);fill-opacity:1;stroke-width:51.024;stroke-linecap:butt;stroke-linejoin:miter;stroke:rgb(10.594177%,9.812927%,9.423828%);stroke-opacity:1;stroke-miterlimit:4;" d="M 2347.070313 1265.445313 C 2517.03125 1135.484375 2703.320313 1112.359375 2898.75 1169.46875 C 2734.53125 1014.078125 2545.3125 1039.859375 2347.070313 1131.226563 C 2141.914063 1009.78125 1947.382813 1041.148438 1776.25 1166.304688 C 2024.726563 1113.804688 2217.65625 1156.34375 2347.070313 1265.445313 Z M 2347.070313 1265.445313 " transform="matrix(0.1,0,0,-0.1,0,476.4)"/>
<path style="fill-rule:evenodd;fill:rgb(0%,56.443787%,20.776367%);fill-opacity:1;stroke-width:51.024;stroke-linecap:butt;stroke-linejoin:miter;stroke:rgb(10.594177%,9.812927%,9.423828%);stroke-opacity:1;stroke-miterlimit:4;" d="M 2694.84375 3574.9375 C 2766.40625 3533.648438 2849.0625 3489.15625 2916.914063 3429.117188 C 3014.257813 3375.09375 3120.117188 3304.234375 3190.859375 3240.640625 C 3232.226563 3213.6875 3225.976563 3125.523438 3278.085938 3152.476563 C 3313.867188 3132.476563 3376.71875 3093.023438 3366.328125 3043.257813 C 3418.28125 3008.726563 3439.296875 2997.90625 3411.054688 2917.789063 C 3471.015625 2902.90625 3514.570313 2872.828125 3516.171875 2809.3125 C 3522.8125 2754.273438 3536.445313 2737.164063 3584.375 2699.742188 C 3593.242188 2689 3571.992188 2601.96875 3645.625 2502.945313 C 3652.578125 2456.421875 3643.164063 2433.257813 3649.296875 2397.90625 C 3700.46875 2285.914063 3705.429688 2168.140625 3678.789063 2046.421875 C 3692.03125 1915.796875 3678.515625 1828.921875 3638.242188 1785.757813 L 3620.390625 1677.046875 C 3610.390625 1708.140625 3621.953125 1745.328125 3606.640625 1779.117188 C 3570.820313 1858.101563 3562.382813 2322.710938 3401.953125 2340.210938 C 3307.8125 2338.257813 3272.03125 1953.609375 3207.03125 1787.632813 C 3199.6875 1904.625 3154.0625 2278.570313 3019.140625 2288.023438 C 2868.671875 2269.3125 2940.585938 1969.859375 2853.90625 1825.367188 C 2841.601563 1891.65625 2787.109375 1980.210938 2807.148438 2038.21875 C 2812.070313 2128.140625 2769.765625 2289.234375 2691.289063 2296.695313 C 2572.304688 2296.421875 2521.953125 2260.953125 2543.90625 2124.625 C 2502.929688 1916.421875 2505.976563 1689.664063 2557.382813 1442.59375 C 2613.828125 1328.648438 2746.367188 1336.8125 2891.171875 1388.570313 C 3155.664063 1447.867188 3325.9375 1436.96875 3341.835938 1278.140625 C 3366.71875 1134.859375 3170.78125 1063.296875 3107.304688 1212.28125 C 2961.25 1082.867188 2906.914063 654.507813 2495.390625 903.453125 C 2457.890625 868.179688 2404.53125 678.375 2346.953125 680.132813 C 2290.15625 678.804688 2224.6875 868.960938 2188.046875 903.453125 C 1776.484375 654.507813 1722.1875 1082.867188 1576.132813 1212.28125 C 1512.65625 1063.296875 1316.71875 1134.859375 1341.601563 1278.140625 C 1357.5 1436.96875 1527.734375 1447.867188 1792.265625 1388.570313 C 1937.070313 1336.8125 2069.570313 1328.648438 2126.054688 1442.59375 C 2177.421875 1689.664063 2180.507813 1916.421875 2139.53125 2124.625 C 2161.484375 2260.953125 2111.132813 2296.421875 1992.148438 2296.695313 C 1913.632813 2289.234375 1871.367188 2128.140625 1876.289063 2038.21875 C 1896.328125 1980.210938 1841.835938 1891.65625 1829.53125 1825.367188 C 1742.851563 1969.859375 1814.765625 2269.3125 1664.296875 2288.023438 C 1529.335938 2278.570313 1483.710938 1904.625 1476.367188 1787.632813 C 1411.40625 1953.609375 1375.625 2338.257813 1281.484375 2340.210938 C 1121.015625 2322.710938 1112.617188 1858.101563 1076.796875 1779.117188 C 1061.484375 1745.328125 1073.046875 1708.140625 1063.046875 1677.046875 L 1045.15625 1785.757813 C 1004.921875 1828.921875 991.40625 1915.796875 1004.609375 2046.421875 C 978.007813 2168.140625 982.96875 2285.914063 1034.140625 2397.90625 C 1040.273438 2433.257813 1030.859375 2456.421875 1037.8125 2502.945313 C 1111.40625 2601.96875 1090.195313 2689 1099.0625 2699.742188 C 1146.992188 2737.164063 1160.625 2754.273438 1167.226563 2809.3125 C 1168.867188 2872.828125 1212.421875 2902.90625 1272.382813 2917.789063 C 1244.140625 2997.90625 1265.117188 3008.726563 1317.109375 3043.257813 C 1306.71875 3093.023438 1369.53125 3132.476563 1405.351563 3152.476563 C 1457.460938 3125.523438 1451.210938 3213.6875 1492.539063 3240.640625 C 1563.320313 3304.234375 1669.179688 3375.09375 1766.523438 3429.117188 C 1834.375 3489.15625 1917.03125 3533.648438 1988.554688 3574.9375 C 2408.125 3667.90625 2280.976563 3669.703125 2694.84375 3574.9375 Z M 2347.070313 1265.445313 C 2517.03125 1135.484375 2703.320313 1112.359375 2898.75 1169.46875 C 2734.53125 1014.078125 2545.3125 1039.859375 2347.070313 1131.226563 C 2141.914063 1009.78125 1947.382813 1041.148438 1776.25 1166.304688 C 2024.726563 1113.804688 2217.65625 1156.34375 2347.070313 1265.445313 Z M 2347.070313 1080.171875 C 2438.085938 992.867188 2409.335938 883.882813 2347.070313 777.164063 C 2283.046875 881.382813 2240.351563 984.507813 2347.070313 1080.171875 Z M 2528.828125 990.914063 C 2641.5625 844.195313 2890.117188 905.992188 2892.382813 1089.742188 C 2766.367188 993.296875 2651.015625 957.476563 2528.828125 990.914063 Z M 2155.742188 990.914063 C 2048.125 835.132813 1800.976563 891.851563 1792.1875 1089.742188 C 1892.109375 1004.898438 2013.320313 969.039063 2155.742188 990.914063 Z M 2155.742188 990.914063 " transform="matrix(0.1,0,0,-0.1,0,476.4)"/>
<path style=" stroke:none;fill-rule:evenodd;fill:rgb(10.594177%,9.812927%,9.423828%);fill-opacity:1;" d="M 59.785156 110.976563 L 70.339844 115.832031 C 78.085938 119.390625 81.597656 128.839844 78.144531 136.835938 L 70.523438 154.496094 C 67.070313 162.484375 57.910156 166.109375 50.167969 162.550781 L 39.609375 157.699219 C 31.867188 154.136719 28.351563 144.6875 31.800781 136.695313 L 39.429688 119.035156 C 42.878906 111.042969 52.039063 107.417969 59.785156 110.976563 Z M 59.332031 113.40625 L 68.894531 117.800781 C 75.910156 121.027344 79.089844 129.585938 75.964844 136.828125 L 69.058594 152.824219 C 65.933594 160.066406 57.632813 163.347656 50.621094 160.125 L 41.058594 155.726563 C 34.039063 152.5 30.859375 143.941406 33.984375 136.703125 L 40.890625 120.703125 C 44.019531 113.464844 52.316406 110.179688 59.332031 113.40625 Z M 59.332031 113.40625 "/>
<path style=" stroke:none;fill-rule:evenodd;fill:rgb(100%,92.576599%,0%);fill-opacity:1;" d="M 59.332031 113.40625 L 68.894531 117.800781 C 75.90625 121.027344 79.089844 129.585938 75.964844 136.828125 L 69.058594 152.828125 C 65.933594 160.066406 57.628906 163.347656 50.617188 160.125 L 41.058594 155.726563 C 34.042969 152.503906 30.859375 143.941406 33.984375 136.699219 L 40.894531 120.703125 C 44.019531 113.464844 52.320313 110.179688 59.332031 113.40625 Z M 58.210938 119.425781 L 65.308594 122.6875 C 70.515625 125.078125 72.878906 131.4375 70.554688 136.8125 L 65.433594 148.6875 C 63.113281 154.0625 56.945313 156.5 51.738281 154.105469 L 44.640625 150.84375 C 39.433594 148.449219 37.070313 142.089844 39.390625 136.714844 L 44.523438 124.839844 C 46.839844 119.46875 53.003906 117.03125 58.210938 119.425781 Z M 58.210938 119.425781 "/>
<path style=" stroke:none;fill-rule:evenodd;fill:rgb(10.594177%,9.812927%,9.423828%);fill-opacity:1;" d="M 58.453125 118.109375 L 66.089844 121.621094 C 71.691406 124.195313 74.234375 131.03125 71.738281 136.816406 L 66.222656 149.59375 C 63.730469 155.375 57.09375 157.996094 51.496094 155.421875 L 43.859375 151.910156 C 38.253906 149.335938 35.714844 142.496094 38.210938 136.710938 L 43.730469 123.9375 C 46.226563 118.15625 52.855469 115.53125 58.453125 118.109375 Z M 58.003906 120.535156 L 64.644531 123.589844 C 69.519531 125.828125 71.730469 131.777344 69.558594 136.808594 L 64.761719 147.925781 C 62.589844 152.953125 56.820313 155.234375 51.945313 152.996094 L 45.304688 149.941406 C 40.429688 147.699219 38.21875 141.75 40.390625 136.71875 L 45.191406 125.605469 C 47.363281 120.574219 53.128906 118.292969 58.003906 120.535156 Z M 58.003906 120.535156 "/>
<path style=" stroke:none;fill-rule:evenodd;fill:rgb(10.594177%,9.812927%,9.423828%);fill-opacity:1;" d="M 58.960938 116.433594 L 76.347656 93.371094 L 76.363281 93.347656 L 76.382813 93.339844 C 77.46875 91.921875 79.007813 91.097656 80.613281 90.90625 C 82.207031 90.714844 83.878906 91.148438 85.242188 92.238281 L 85.269531 92.261719 L 85.308594 92.292969 L 85.332031 92.308594 C 85.71875 92.628906 86.058594 92.984375 86.34375 93.359375 C 86.621094 93.722656 86.867188 94.132813 87.074219 94.582031 C 88.085938 96.765625 87.882813 99.453125 86.355469 101.476563 L 68.96875 124.539063 L 68.953125 124.5625 L 68.933594 124.574219 C 67.851563 125.988281 66.308594 126.8125 64.703125 127.007813 C 63.109375 127.195313 61.4375 126.765625 60.074219 125.675781 L 60.046875 125.652344 L 60.007813 125.621094 L 59.984375 125.601563 C 59.597656 125.28125 59.257813 124.929688 58.972656 124.554688 C 58.695313 124.191406 58.449219 123.777344 58.242188 123.332031 C 57.230469 121.148438 57.433594 118.460938 58.960938 116.433594 Z M 60.929688 118.011719 L 78.316406 94.949219 C 79.621094 93.21875 82.078125 92.929688 83.75 94.292969 C 85.417969 95.652344 85.695313 98.167969 84.386719 99.898438 L 67 122.960938 C 65.695313 124.695313 63.238281 124.980469 61.566406 123.621094 C 59.898438 122.257813 59.621094 119.746094 60.929688 118.011719 Z M 60.929688 118.011719 "/>
<path style=" stroke:none;fill-rule:evenodd;fill:rgb(100%,92.576599%,0%);fill-opacity:1;" d="M 60.929688 118.011719 L 78.316406 94.949219 C 79.621094 93.21875 82.078125 92.929688 83.75 94.292969 C 85.417969 95.652344 85.691406 98.167969 84.386719 99.898438 L 67 122.960938 C 65.695313 124.695313 63.238281 124.980469 61.566406 123.621094 C 59.898438 122.257813 59.621094 119.746094 60.929688 118.011719 Z M 60.929688 118.011719 "/>
<path style=" stroke:none;fill-rule:evenodd;fill:rgb(10.594177%,9.812927%,9.423828%);fill-opacity:1;" d="M 32.261719 165.3125 L 43.257813 168.980469 C 51.324219 171.675781 55.789063 180.6875 53.179688 189.011719 L 47.414063 207.40625 C 44.804688 215.734375 36.070313 220.339844 28.003906 217.648438 L 17.007813 213.976563 C 8.941406 211.285156 4.476563 202.273438 7.085938 193.949219 L 12.851563 175.554688 C 15.460938 167.230469 24.195313 162.621094 32.261719 165.3125 Z M 32.0625 167.777344 L 42.023438 171.101563 C 49.332031 173.539063 53.375 181.703125 51.011719 189.246094 L 45.789063 205.910156 C 43.425781 213.449219 35.511719 217.625 28.207031 215.183594 L 18.246094 211.859375 C 10.9375 209.421875 6.890625 201.257813 9.253906 193.71875 L 14.476563 177.050781 C 16.839844 169.511719 24.753906 165.335938 32.0625 167.777344 Z M 32.0625 167.777344 "/>
<path style=" stroke:none;fill-rule:evenodd;fill:rgb(100%,92.576599%,0%);fill-opacity:1;" d="M 32.0625 167.777344 L 42.023438 171.101563 C 49.328125 173.539063 53.375 181.699219 51.011719 189.246094 L 45.789063 205.910156 C 43.429688 213.449219 35.507813 217.625 28.203125 215.1875 L 18.246094 211.859375 C 10.9375 209.421875 6.890625 201.257813 9.253906 193.71875 L 14.480469 177.050781 C 16.839844 169.511719 24.757813 165.335938 32.0625 167.777344 Z M 31.566406 173.882813 L 38.957031 176.351563 C 44.382813 178.160156 47.386719 184.222656 45.628906 189.820313 L 41.757813 202.191406 C 40.003906 207.789063 34.121094 210.890625 28.699219 209.078125 L 21.304688 206.609375 C 15.882813 204.800781 12.878906 198.738281 14.632813 193.136719 L 18.511719 180.769531 C 20.265625 175.171875 26.140625 172.074219 31.566406 173.882813 Z M 31.566406 173.882813 "/>
<path style=" stroke:none;fill-rule:evenodd;fill:rgb(10.594177%,9.812927%,9.423828%);fill-opacity:1;" d="M 31.671875 172.550781 L 39.628906 175.203125 C 45.464844 177.152344 48.695313 183.671875 46.804688 189.695313 L 42.636719 203.003906 C 40.753906 209.027344 34.425781 212.359375 28.59375 210.414063 L 20.640625 207.757813 C 14.800781 205.8125 11.570313 199.289063 13.457031 193.265625 L 17.632813 179.957031 C 19.519531 173.9375 25.839844 170.601563 31.671875 172.550781 Z M 31.472656 175.011719 L 38.394531 177.320313 C 43.46875 179.015625 46.28125 184.6875 44.636719 189.925781 L 41.011719 201.507813 C 39.371094 206.746094 33.867188 209.644531 28.792969 207.953125 L 21.875 205.640625 C 16.796875 203.949219 13.984375 198.273438 15.625 193.03125 L 19.257813 181.457031 C 20.898438 176.21875 26.398438 173.316406 31.472656 175.011719 Z M 31.472656 175.011719 "/>
<path style=" stroke:none;fill-rule:evenodd;fill:rgb(10.594177%,9.812927%,9.423828%);fill-opacity:1;" d="M 17.265625 222.371094 L 28.8125 222.863281 C 37.28125 223.226563 43.925781 230.671875 43.574219 239.417969 L 42.800781 258.734375 C 42.449219 267.476563 35.230469 274.328125 26.757813 273.96875 L 15.210938 273.472656 C 6.742188 273.109375 0.0976563 265.664063 0.449219 256.921875 L 1.222656 237.605469 C 1.574219 228.863281 8.792969 222.007813 17.265625 222.371094 Z M 17.710938 224.796875 L 28.171875 225.246094 C 35.847656 225.574219 41.863281 232.320313 41.542969 240.242188 L 40.84375 257.738281 C 40.523438 265.65625 33.984375 271.867188 26.3125 271.539063 L 15.851563 271.089844 C 8.179688 270.761719 2.160156 264.015625 2.476563 256.097656 L 3.179688 238.597656 C 3.5 230.679688 10.039063 224.46875 17.710938 224.796875 Z M 17.710938 224.796875 "/>
<path style=" stroke:none;fill-rule:evenodd;fill:rgb(100%,92.576599%,0%);fill-opacity:1;" d="M 17.710938 224.796875 L 28.171875 225.246094 C 35.84375 225.574219 41.859375 232.320313 41.542969 240.242188 L 40.84375 257.738281 C 40.527344 265.65625 33.980469 271.867188 26.3125 271.542969 L 15.851563 271.089844 C 8.179688 270.765625 2.160156 264.015625 2.476563 256.097656 L 3.183594 238.597656 C 3.5 230.679688 10.042969 224.46875 17.710938 224.796875 Z M 18.820313 230.820313 L 26.585938 231.152344 C 32.28125 231.394531 36.746094 236.402344 36.511719 242.285156 L 35.992188 255.273438 C 35.757813 261.152344 30.894531 265.765625 25.203125 265.519531 L 17.4375 265.1875 C 11.742188 264.945313 7.273438 259.933594 7.507813 254.050781 L 8.035156 241.0625 C 8.269531 235.1875 13.125 230.574219 18.820313 230.820313 Z M 18.820313 230.820313 "/>
<path style=" stroke:none;fill-rule:evenodd;fill:rgb(10.594177%,9.812927%,9.423828%);fill-opacity:1;" d="M 18.578125 229.503906 L 26.933594 229.863281 C 33.058594 230.125 37.863281 235.511719 37.609375 241.835938 L 37.050781 255.8125 C 36.800781 262.136719 31.570313 267.097656 25.445313 266.835938 L 17.09375 266.476563 C 10.964844 266.214844 6.15625 260.824219 6.410156 254.5 L 6.976563 240.523438 C 7.226563 234.203125 12.453125 229.242188 18.578125 229.503906 Z M 19.023438 231.929688 L 26.292969 232.242188 C 31.621094 232.46875 35.804688 237.15625 35.582031 242.660156 L 35.097656 254.820313 C 34.878906 260.320313 30.328125 264.636719 25 264.40625 L 17.734375 264.097656 C 12.402344 263.871094 8.21875 259.179688 8.4375 253.675781 L 8.929688 241.519531 C 9.148438 236.019531 13.695313 231.703125 19.023438 231.929688 Z M 19.023438 231.929688 "/>
<path style=" stroke:none;fill-rule:evenodd;fill:rgb(10.594177%,9.812927%,9.423828%);fill-opacity:1;" d="M 21.5 285.683594 L 32.457031 281.890625 C 40.496094 279.109375 49.277344 283.617188 51.972656 291.914063 L 57.933594 310.242188 C 60.628906 318.539063 56.257813 327.601563 48.21875 330.382813 L 37.265625 334.171875 C 29.226563 336.957031 20.441406 332.445313 17.746094 324.152344 L 11.789063 305.820313 C 9.09375 297.527344 13.460938 288.464844 21.5 285.683594 Z M 22.757813 287.785156 L 32.683594 284.351563 C 39.964844 281.832031 47.921875 285.914063 50.363281 293.429688 L 55.761719 310.035156 C 58.203125 317.550781 54.246094 325.757813 46.960938 328.277344 L 37.039063 331.714844 C 29.753906 334.234375 21.800781 330.148438 19.355469 322.636719 L 13.960938 306.027344 C 11.515625 298.515625 15.476563 290.304688 22.757813 287.785156 Z M 22.757813 287.785156 "/>
<path style=" stroke:none;fill-rule:evenodd;fill:rgb(100%,92.576599%,0%);fill-opacity:1;" d="M 22.757813 287.785156 L 32.683594 284.351563 C 39.960938 281.832031 47.917969 285.914063 50.363281 293.429688 L 55.765625 310.035156 C 58.207031 317.546875 54.242188 325.761719 46.964844 328.28125 L 37.039063 331.714844 C 29.757813 334.234375 21.800781 330.148438 19.355469 322.632813 L 13.960938 306.027344 C 11.519531 298.515625 15.480469 290.304688 22.757813 287.785156 Z M 25.878906 293.003906 L 33.246094 290.453125 C 38.648438 288.582031 44.554688 291.613281 46.367188 297.195313 L 50.378906 309.519531 C 52.191406 315.097656 49.246094 321.195313 43.84375 323.0625 L 36.476563 325.613281 C 31.070313 327.484375 25.164063 324.449219 23.347656 318.871094 L 19.347656 306.542969 C 17.53125 300.96875 20.472656 294.871094 25.878906 293.003906 Z M 25.878906 293.003906 "/>
<path style=" stroke:none;fill-rule:evenodd;fill:rgb(10.594177%,9.812927%,9.423828%);fill-opacity:1;" d="M 25.195313 291.863281 L 33.121094 289.117188 C 38.9375 287.105469 45.289063 290.367188 47.242188 296.371094 L 51.554688 309.632813 C 53.507813 315.632813 50.339844 322.191406 44.527344 324.203125 L 36.601563 326.945313 C 30.785156 328.960938 24.429688 325.695313 22.476563 319.691406 L 18.167969 306.429688 C 16.21875 300.429688 19.382813 293.875 25.195313 291.863281 Z M 26.453125 293.964844 L 33.347656 291.578125 C 38.40625 289.828125 43.933594 292.664063 45.632813 297.886719 L 49.382813 309.425781 C 51.082031 314.644531 48.324219 320.351563 43.269531 322.101563 L 36.375 324.484375 C 31.316406 326.238281 25.785156 323.398438 24.085938 318.175781 L 20.339844 306.636719 C 18.640625 301.417969 21.394531 295.714844 26.453125 293.964844 Z M 26.453125 293.964844 "/>
<path style=" stroke:none;fill-rule:evenodd;fill:rgb(10.594177%,9.812927%,9.423828%);fill-opacity:1;" d="M 43.429688 342.71875 L 53.410156 336.707031 C 60.734375 332.300781 70.222656 334.871094 74.496094 342.429688 L 83.941406 359.125 C 88.214844 366.683594 85.722656 376.472656 78.398438 380.882813 L 68.417969 386.890625 C 61.097656 391.300781 51.609375 388.730469 47.335938 381.175781 L 37.886719 364.476563 C 33.613281 356.917969 36.109375 347.128906 43.429688 342.71875 Z M 45.078125 344.515625 L 54.117188 339.070313 C 60.75 335.074219 69.34375 337.40625 73.21875 344.253906 L 81.773438 359.378906 C 85.648438 366.222656 83.386719 375.089844 76.753906 379.085938 L 67.710938 384.53125 C 61.078125 388.527344 52.484375 386.195313 48.613281 379.351563 L 40.054688 364.222656 C 36.183594 357.378906 38.445313 348.511719 45.078125 344.515625 Z M 45.078125 344.515625 "/>
<path style=" stroke:none;fill-rule:evenodd;fill:rgb(100%,92.576599%,0%);fill-opacity:1;" d="M 45.078125 344.515625 L 54.117188 339.070313 C 60.75 335.078125 69.34375 337.40625 73.21875 344.253906 L 81.777344 359.375 C 85.648438 366.21875 83.382813 375.09375 76.753906 379.089844 L 67.714844 384.53125 C 61.082031 388.527344 52.484375 386.195313 48.613281 379.351563 L 40.058594 364.222656 C 36.183594 357.378906 38.445313 348.507813 45.078125 344.515625 Z M 49.160156 348.96875 L 55.871094 344.925781 C 60.792969 341.960938 67.171875 343.691406 70.046875 348.777344 L 76.402344 360 C 79.277344 365.082031 77.59375 371.671875 72.671875 374.632813 L 65.960938 378.675781 C 61.039063 381.644531 54.65625 379.910156 51.777344 374.828125 L 45.429688 363.597656 C 42.554688 358.519531 44.234375 351.933594 49.160156 348.96875 Z M 49.160156 348.96875 "/>
<path style=" stroke:none;fill-rule:evenodd;fill:rgb(10.594177%,9.812927%,9.423828%);fill-opacity:1;" d="M 48.265625 347.996094 L 55.488281 343.648438 C 60.78125 340.457031 67.644531 342.316406 70.738281 347.789063 L 77.578125 359.863281 C 80.667969 365.328125 78.859375 372.417969 73.566406 375.605469 L 66.34375 379.953125 C 61.046875 383.144531 54.179688 381.28125 51.085938 375.816406 L 44.257813 363.734375 C 41.164063 358.269531 42.96875 351.183594 48.265625 347.996094 Z M 49.910156 349.789063 L 56.191406 346.007813 C 60.800781 343.230469 66.769531 344.851563 69.460938 349.609375 L 75.410156 360.117188 C 78.101563 364.871094 76.527344 371.039063 71.917969 373.8125 L 65.640625 377.59375 C 61.03125 380.371094 55.058594 378.75 52.367188 373.992188 L 46.421875 363.480469 C 43.734375 358.730469 45.304688 352.566406 49.910156 349.789063 Z M 49.910156 349.789063 "/>
<path style=" stroke:none;fill-rule:evenodd;fill:rgb(10.594177%,9.812927%,9.423828%);fill-opacity:1;" d="M 44.4375 346.4375 L 35.570313 320.871094 L 35.5625 320.84375 L 35.5625 320.824219 C 35.027344 319.242188 35.167969 317.582031 35.824219 316.1875 C 36.472656 314.804688 37.632813 313.664063 39.140625 313.105469 L 39.171875 313.09375 L 39.214844 313.078125 L 39.242188 313.066406 C 39.675781 312.914063 40.113281 312.816406 40.542969 312.769531 C 40.957031 312.726563 41.390625 312.734375 41.835938 312.789063 C 44 313.058594 45.941406 314.5625 46.722656 316.808594 L 55.589844 342.375 L 55.597656 342.402344 L 55.597656 342.421875 C 56.132813 344.003906 55.992188 345.660156 55.335938 347.058594 C 54.6875 348.441406 53.527344 349.582031 52.015625 350.140625 L 51.984375 350.152344 L 51.945313 350.167969 L 51.917969 350.175781 C 51.480469 350.332031 51.042969 350.429688 50.617188 350.472656 C 50.203125 350.519531 49.765625 350.511719 49.324219 350.453125 C 47.160156 350.1875 45.21875 348.683594 44.4375 346.4375 Z M 46.617188 345.628906 L 37.75 320.0625 C 37.085938 318.140625 38.09375 316.007813 39.960938 315.335938 C 41.828125 314.664063 43.875 315.695313 44.539063 317.613281 L 53.40625 343.179688 C 54.074219 345.101563 53.066406 347.234375 51.199219 347.910156 C 49.332031 348.582031 47.285156 347.550781 46.617188 345.628906 Z M 46.617188 345.628906 "/>
<path style=" stroke:none;fill-rule:evenodd;fill:rgb(100%,92.576599%,0%);fill-opacity:1;" d="M 46.617188 345.632813 L 37.75 320.0625 C 37.085938 318.140625 38.09375 316.011719 39.960938 315.335938 C 41.828125 314.664063 43.875 315.695313 44.539063 317.613281 L 53.40625 343.183594 C 54.074219 345.101563 53.066406 347.234375 51.199219 347.910156 C 49.332031 348.582031 47.285156 347.550781 46.617188 345.632813 Z M 46.617188 345.632813 "/>
<path style=" stroke:none;fill-rule:evenodd;fill:rgb(10.594177%,9.812927%,9.423828%);fill-opacity:1;" d="M 96.898438 411.207031 L 67.542969 377.6875 L 67.527344 377.667969 L 67.519531 377.648438 C 66.453125 376.386719 65.988281 374.792969 66.089844 373.246094 C 66.195313 371.710938 66.859375 370.210938 68.058594 369.109375 L 68.085938 369.085938 L 68.117188 369.054688 L 68.136719 369.039063 C 68.488281 368.726563 68.859375 368.46875 69.238281 368.261719 C 69.609375 368.0625 70.015625 367.902344 70.445313 367.785156 C 72.554688 367.203125 74.898438 367.855469 76.429688 369.636719 L 105.785156 403.152344 L 105.804688 403.175781 L 105.808594 403.195313 C 106.875 404.457031 107.34375 406.050781 107.238281 407.597656 C 107.136719 409.132813 106.46875 410.632813 105.269531 411.734375 L 105.214844 411.789063 L 105.191406 411.804688 C 104.84375 412.117188 104.472656 412.375 104.089844 412.582031 C 103.722656 412.78125 103.316406 412.941406 102.882813 413.058594 C 100.777344 413.640625 98.433594 412.992188 96.898438 411.207031 Z M 98.632813 409.621094 L 69.277344 376.101563 C 67.953125 374.589844 68.132813 372.210938 69.625 370.867188 C 71.113281 369.527344 73.386719 369.695313 74.695313 371.222656 L 104.050781 404.742188 C 105.378906 406.253906 105.199219 408.632813 103.707031 409.976563 C 102.21875 411.316406 99.945313 411.148438 98.632813 409.621094 Z M 98.632813 409.621094 "/>
<path style=" stroke:none;fill-rule:evenodd;fill:rgb(100%,92.576599%,0%);fill-opacity:1;" d="M 98.632813 410.265625 L 69.277344 376.101563 C 67.964844 374.574219 68.132813 372.210938 69.625 370.867188 C 71.113281 369.527344 73.386719 369.695313 74.695313 371.222656 L 104.050781 405.382813 C 105.363281 406.910156 105.199219 409.277344 103.707031 410.621094 C 102.21875 411.960938 99.945313 411.789063 98.632813 410.265625 Z M 98.632813 410.265625 "/>
<path style=" stroke:none;fill-rule:evenodd;fill:rgb(10.594177%,9.812927%,9.423828%);fill-opacity:1;" d="M 22.222656 289.734375 L 18.753906 262.816406 L 18.75 262.789063 L 18.757813 262.769531 C 18.558594 261.105469 19.03125 259.515625 19.957031 258.292969 C 20.871094 257.082031 22.238281 256.21875 23.828125 256 L 23.863281 255.996094 L 23.90625 255.988281 L 23.933594 255.984375 C 24.390625 255.929688 24.839844 255.929688 25.265625 255.976563 C 25.679688 256.023438 26.101563 256.125 26.527344 256.277344 C 28.589844 257.007813 30.179688 258.902344 30.484375 261.261719 L 33.949219 288.179688 L 33.953125 288.207031 L 33.949219 288.226563 C 34.152344 289.890625 33.675781 291.480469 32.75 292.703125 C 31.835938 293.917969 30.46875 294.777344 28.878906 295 L 28.84375 295.003906 L 28.800781 295.011719 L 28.773438 295.015625 C 28.316406 295.070313 27.867188 295.070313 27.441406 295.023438 C 27.027344 294.976563 26.601563 294.875 26.179688 294.722656 C 24.121094 293.992188 22.527344 292.101563 22.222656 289.738281 Z M 24.519531 289.421875 L 21.050781 262.5 C 20.792969 260.476563 22.210938 258.613281 24.171875 258.359375 C 26.136719 258.105469 27.929688 259.558594 28.1875 261.578125 L 31.652344 288.496094 C 31.914063 290.519531 30.496094 292.386719 28.535156 292.640625 C 26.570313 292.894531 24.777344 291.445313 24.519531 289.421875 Z M 24.519531 289.421875 "/>
<path style=" stroke:none;fill-rule:evenodd;fill:rgb(100%,92.576599%,0%);fill-opacity:1;" d="M 24.519531 289.421875 L 21.054688 262.5 C 20.792969 260.476563 22.210938 258.613281 24.171875 258.359375 C 26.136719 258.105469 27.929688 259.558594 28.1875 261.578125 L 31.652344 288.496094 C 31.914063 290.519531 30.496094 292.386719 28.535156 292.640625 C 26.570313 292.894531 24.777344 291.445313 24.519531 289.421875 Z M 24.519531 289.421875 "/>
<path style=" stroke:none;fill-rule:evenodd;fill:rgb(10.594177%,9.812927%,9.423828%);fill-opacity:1;" d="M 18.902344 232.222656 L 23.023438 205.402344 L 23.027344 205.378906 L 23.039063 205.359375 C 23.304688 203.707031 24.199219 202.320313 25.421875 201.421875 C 26.636719 200.53125 28.183594 200.105469 29.769531 200.363281 L 29.804688 200.367188 L 29.847656 200.375 L 29.875 200.378906 C 30.328125 200.460938 30.757813 200.59375 31.152344 200.765625 C 31.535156 200.933594 31.914063 201.152344 32.277344 201.421875 C 34.050781 202.734375 35.054688 205.015625 34.695313 207.367188 L 30.574219 234.1875 L 30.570313 234.214844 L 30.558594 234.230469 C 30.292969 235.886719 29.398438 237.269531 28.171875 238.167969 C 26.960938 239.0625 25.410156 239.484375 23.824219 239.230469 L 23.792969 239.222656 L 23.75 239.21875 L 23.722656 239.210938 C 23.269531 239.132813 22.839844 239 22.441406 238.828125 C 22.058594 238.660156 21.679688 238.4375 21.316406 238.167969 C 19.546875 236.863281 18.539063 234.582031 18.902344 232.222656 Z M 21.191406 232.597656 L 25.3125 205.777344 C 25.621094 203.761719 27.496094 202.390625 29.449219 202.726563 C 31.398438 203.058594 32.714844 204.980469 32.40625 206.992188 L 28.285156 233.8125 C 27.976563 235.828125 26.097656 237.199219 24.148438 236.867188 C 22.199219 236.53125 20.878906 234.613281 21.191406 232.597656 Z M 21.191406 232.597656 "/>
<path style=" stroke:none;fill-rule:evenodd;fill:rgb(100%,92.576599%,0%);fill-opacity:1;" d="M 21.191406 232.597656 L 25.3125 205.777344 C 25.621094 203.761719 27.496094 202.390625 29.449219 202.726563 C 31.398438 203.058594 32.714844 204.980469 32.40625 206.992188 L 28.285156 233.8125 C 27.976563 235.828125 26.097656 237.199219 24.148438 236.867188 C 22.199219 236.53125 20.878906 234.613281 21.191406 232.597656 Z M 21.191406 232.597656 "/>
<path style=" stroke:none;fill-rule:evenodd;fill:rgb(10.594177%,9.812927%,9.423828%);fill-opacity:1;" d="M 29.421875 175.886719 L 39.34375 150.738281 L 39.351563 150.710938 L 39.367188 150.695313 C 39.992188 149.148438 41.167969 148.011719 42.558594 147.421875 C 43.9375 146.835938 45.539063 146.789063 47.027344 147.410156 L 47.054688 147.421875 L 47.097656 147.4375 L 47.121094 147.449219 C 47.546875 147.636719 47.9375 147.863281 48.285156 148.125 C 48.621094 148.378906 48.941406 148.683594 49.234375 149.027344 C 50.671875 150.722656 51.148438 153.175781 50.277344 155.386719 L 40.359375 180.539063 L 40.347656 180.5625 L 40.332031 180.578125 C 39.710938 182.125 38.53125 183.261719 37.144531 183.851563 C 35.765625 184.4375 34.164063 184.488281 32.675781 183.863281 L 32.644531 183.851563 L 32.605469 183.835938 L 32.578125 183.824219 C 32.152344 183.640625 31.765625 183.410156 31.417969 183.148438 C 31.082031 182.898438 30.761719 182.589844 30.46875 182.246094 C 29.027344 180.554688 28.550781 178.097656 29.421875 175.886719 Z M 31.570313 176.789063 L 41.488281 151.636719 C 42.238281 149.746094 44.363281 148.851563 46.191406 149.632813 C 48.015625 150.417969 48.875 152.597656 48.132813 154.484375 L 38.210938 179.636719 C 37.464844 181.527344 35.335938 182.421875 33.511719 181.640625 C 31.683594 180.855469 30.824219 178.679688 31.570313 176.789063 Z M 31.570313 176.789063 "/>
<path style=" stroke:none;fill-rule:evenodd;fill:rgb(100%,92.576599%,0%);fill-opacity:1;" d="M 31.570313 176.789063 L 41.492188 151.636719 C 42.234375 149.746094 44.363281 148.851563 46.191406 149.632813 C 48.015625 150.417969 48.875 152.597656 48.132813 154.484375 L 38.210938 179.636719 C 37.464844 181.527344 35.335938 182.421875 33.511719 181.640625 C 31.683594 180.855469 30.824219 178.679688 31.570313 176.789063 Z M 31.570313 176.789063 "/>
<path style=" stroke:none;fill-rule:evenodd;fill:rgb(100%,100%,100%);fill-opacity:1;" d="M 140.316406 93.414063 L 197.476563 92.34375 L 198.292969 92.328125 L 198.359375 93.144531 L 199.214844 104.0625 L 199.292969 105.046875 L 198.304688 105 L 145.445313 102.503906 L 159.507813 129.203125 L 160.183594 130.480469 L 118.039063 130.480469 L 118.8125 129.167969 L 139.578125 93.84375 L 139.824219 93.421875 Z M 140.316406 93.414063 "/>
<path style=" stroke:none;fill-rule:evenodd;fill:rgb(10.594177%,9.812927%,9.423828%);fill-opacity:1;" d="M 137.84375 105.28125 L 138.289063 127.226563 L 138.28125 128.085938 L 137.417969 128.089844 L 125.234375 128.132813 L 123.699219 128.136719 L 124.488281 126.816406 Z M 196.683594 94.097656 L 140.832031 95.144531 L 121.082031 128.734375 L 157.296875 128.734375 L 143.195313 101.96875 L 142.488281 100.621094 L 144.007813 100.695313 L 197.398438 103.214844 Z M 140.316406 93.414063 L 197.476563 92.34375 L 198.292969 92.328125 L 198.359375 93.144531 L 199.214844 104.0625 L 199.292969 105.046875 L 198.304688 105 L 145.445313 102.503906 L 159.507813 129.203125 L 160.183594 130.480469 L 118.039063 130.480469 L 118.8125 129.167969 L 139.578125 93.84375 L 139.824219 93.421875 Z M 141.035156 105.28125 L 140.59375 127.226563 L 140.601563 128.085938 L 141.460938 128.089844 L 153.648438 128.132813 L 155.179688 128.136719 L 154.394531 126.816406 Z M 142.324219 126.355469 L 142.179688 109.726563 L 152.113281 126.386719 Z M 136.554688 126.355469 L 136.703125 109.726563 L 126.765625 126.386719 Z M 136.554688 126.355469 "/>
<path style=" stroke:none;fill-rule:evenodd;fill:rgb(10.594177%,9.812927%,9.423828%);fill-opacity:1;" d="M 159.867188 129.71875 C 160.308594 130.632813 160.542969 131.59375 160.542969 132.582031 C 160.542969 138.90625 150.9375 144.03125 139.09375 144.03125 C 127.25 144.03125 117.640625 138.90625 117.640625 132.582031 C 117.640625 131.59375 117.878906 130.632813 118.320313 129.71875 Z M 159.867188 129.71875 "/>
<path style=" stroke:none;fill-rule:evenodd;fill:rgb(100%,92.576599%,0%);fill-opacity:1;" d="M 158.597656 131.464844 L 119.589844 131.464844 C 119.496094 131.828125 119.449219 132.199219 119.449219 132.582031 C 119.449219 132.828125 119.46875 133.074219 119.507813 133.320313 C 119.96875 136.136719 122.9375 138.246094 125.386719 139.449219 C 129.492188 141.46875 134.519531 142.289063 139.09375 142.289063 C 143.667969 142.289063 148.695313 141.46875 152.800781 139.449219 C 155.246094 138.246094 158.214844 136.136719 158.675781 133.320313 C 158.714844 133.074219 158.738281 132.828125 158.738281 132.582031 C 158.738281 132.199219 158.6875 131.828125 158.597656 131.464844 Z M 158.597656 131.464844 "/>
<path style=" stroke:none;fill-rule:evenodd;fill:rgb(100%,100%,100%);fill-opacity:1;" d="M 329.828125 93.414063 L 272.664063 92.34375 L 271.847656 92.328125 L 271.785156 93.144531 L 270.925781 104.0625 L 270.851563 105.046875 L 271.835938 105 L 324.695313 102.503906 L 310.632813 129.203125 L 309.957031 130.480469 L 352.101563 130.480469 L 351.328125 129.167969 L 330.5625 93.84375 L 330.316406 93.421875 Z M 329.828125 93.414063 "/>
<path style=" stroke:none;fill-rule:evenodd;fill:rgb(10.594177%,9.812927%,9.423828%);fill-opacity:1;" d="M 329.828125 93.414063 L 272.664063 92.34375 L 271.847656 92.328125 L 271.785156 93.144531 L 270.925781 104.0625 L 270.851563 105.046875 L 271.835938 105 L 324.695313 102.503906 L 310.632813 129.203125 L 309.957031 130.480469 L 352.101563 130.480469 L 351.328125 129.167969 L 330.5625 93.84375 L 330.316406 93.421875 Z M 329.828125 93.414063 "/>
<path style=" stroke:none;fill-rule:evenodd;fill:rgb(100%,100%,100%);fill-opacity:1;" d="M 273.457031 94.097656 L 329.3125 95.144531 L 349.058594 128.734375 L 312.84375 128.734375 L 326.945313 101.96875 L 327.652344 100.621094 L 326.132813 100.695313 L 272.742188 103.214844 Z M 273.457031 94.097656 "/>
<path style=" stroke:none;fill-rule:evenodd;fill:rgb(10.594177%,9.812927%,9.423828%);fill-opacity:1;" d="M 310.273438 129.71875 C 309.832031 130.632813 309.597656 131.59375 309.597656 132.582031 C 309.597656 138.90625 319.203125 144.03125 331.046875 144.03125 C 342.894531 144.03125 352.5 138.90625 352.5 132.582031 C 352.5 131.59375 352.261719 130.632813 351.824219 129.71875 Z M 310.273438 129.71875 "/>
<path style=" stroke:none;fill-rule:evenodd;fill:rgb(100%,92.576599%,0%);fill-opacity:1;" d="M 311.542969 131.464844 L 350.550781 131.464844 C 350.644531 131.828125 350.691406 132.199219 350.691406 132.582031 C 350.691406 132.828125 350.671875 133.074219 350.632813 133.320313 C 350.171875 136.136719 347.203125 138.246094 344.757813 139.449219 C 340.648438 141.46875 335.621094 142.289063 331.046875 142.289063 C 326.476563 142.289063 321.449219 141.46875 317.339844 139.449219 C 314.894531 138.246094 311.925781 136.136719 311.464844 133.320313 C 311.425781 133.074219 311.40625 132.828125 311.40625 132.582031 C 311.40625 132.199219 311.453125 131.828125 311.542969 131.464844 Z M 311.542969 131.464844 "/>
<path style=" stroke:none;fill-rule:evenodd;fill:rgb(10.594177%,9.812927%,9.423828%);fill-opacity:1;" d="M 330.261719 103.121094 L 330.25 126.539063 L 317.671875 126.480469 Z M 330.835938 103.121094 L 343.429688 126.480469 L 330.847656 126.539063 Z M 330.835938 103.121094 "/>
<path style=" stroke:none;fill-rule:evenodd;fill:rgb(89.0625%,0%,8.616638%);fill-opacity:1;" d="M 329.097656 107.738281 L 329.089844 125.367188 L 319.613281 125.328125 Z M 332.003906 107.738281 L 332.011719 125.367188 L 341.484375 125.328125 Z M 332.003906 107.738281 "/>
<path style=" stroke:none;fill-rule:evenodd;fill:rgb(100%,100%,100%);fill-opacity:1;" d="M 196.617188 67.941406 L 274.9375 67.941406 L 274.9375 132.699219 C 274.90625 153.53125 237.953125 152.179688 235.902344 161.167969 L 235.652344 161.167969 C 233.601563 152.179688 196.648438 153.53125 196.617188 132.699219 Z M 196.617188 67.941406 "/>
<path style=" stroke:none;fill-rule:evenodd;fill:rgb(10.594177%,9.812927%,9.423828%);fill-opacity:1;" d="M 196.617188 67.941406 L 274.9375 67.941406 L 274.9375 132.699219 C 274.90625 153.53125 237.953125 152.179688 235.902344 161.167969 L 235.652344 161.167969 C 233.601563 152.179688 196.648438 153.53125 196.617188 132.699219 Z M 199.527344 70.851563 L 199.527344 132.695313 C 199.550781 148.875 226.753906 149.007813 235.777344 156.464844 C 244.800781 149.007813 272.003906 148.875 272.027344 132.695313 L 272.027344 70.851563 Z M 199.527344 70.851563 "/>
<path style=" stroke:none;fill-rule:evenodd;fill:rgb(10.594177%,9.812927%,9.423828%);fill-opacity:1;" d="M 204.621094 75.960938 L 204.621094 129.859375 C 204.640625 143.957031 228.019531 144.074219 235.777344 150.574219 C 243.53125 144.074219 266.910156 143.957031 266.929688 129.859375 L 266.929688 75.960938 Z M 204.621094 75.960938 "/>
<path style=" stroke:none;fill-rule:evenodd;fill:rgb(100%,92.576599%,0%);fill-opacity:1;" d="M 211.148438 102.238281 L 229.808594 102.238281 L 235.585938 84.484375 L 241.351563 102.238281 L 260.007813 102.238281 L 244.933594 113.222656 L 250.695313 130.980469 L 235.585938 119.996094 L 220.460938 130.980469 L 226.226563 113.222656 Z M 211.148438 102.238281 "/>
<path style=" stroke:none;fill-rule:evenodd;fill:rgb(10.594177%,9.812927%,9.423828%);fill-opacity:1;" d="M 393.152344 390.136719 C 385.933594 398.082031 378.085938 405.4375 369.636719 412.085938 L 366.480469 414.566406 L 364.867188 401.65625 L 366.140625 400.898438 C 377.363281 394.214844 387.246094 384.882813 395.695313 374.402344 C 395.867188 373.148438 395.914063 371.886719 395.71875 370.761719 C 395.496094 369.46875 394.980469 368.472656 393.976563 367.625 C 392.871094 366.683594 391.339844 366.042969 390.019531 365.460938 C 387.695313 364.4375 385.492188 363.417969 383.863281 361.535156 L 383.054688 361.964844 L 381.882813 360.976563 C 373.582031 353.953125 373.722656 346.628906 382.777344 340.664063 C 383.796875 336.191406 385.949219 331.492188 389.960938 329.230469 C 390.785156 325.984375 393.460938 323.285156 396.167969 321.257813 C 397.089844 316.863281 399.105469 312.210938 402.875 309.789063 C 402.808594 309.585938 402.75 309.378906 402.703125 309.167969 C 401.828125 305.269531 404.585938 301.921875 407.390625 299.46875 C 406.734375 295.25 406.886719 290.132813 410.597656 287.449219 C 410.816406 287.289063 411.042969 287.144531 411.273438 287.015625 C 411.238281 286.914063 411.203125 286.816406 411.171875 286.71875 C 409.816406 282.617188 411.710938 279.011719 414.714844 276.410156 C 413.726563 272.714844 413.828125 268.425781 416.785156 265.679688 C 417.140625 265.347656 417.511719 265.058594 417.898438 264.816406 C 417.175781 263.988281 416.609375 263.019531 416.257813 261.953125 C 415.234375 258.851563 416.175781 255.757813 417.960938 253.195313 C 416.496094 249.003906 416.765625 243.867188 420.222656 240.8125 C 420.113281 240.75 420.007813 240.6875 419.902344 240.621094 C 418.683594 239.867188 417.601563 238.863281 416.898438 237.601563 C 415.125 234.417969 416.425781 231.183594 418.492188 228.605469 C 416.441406 225.402344 415.6875 221.425781 418.054688 218.070313 C 418.597656 217.292969 419.238281 216.65625 419.941406 216.144531 C 419.390625 215.992188 418.855469 215.785156 418.351563 215.527344 C 417.40625 215.050781 416.550781 214.390625 415.882813 213.5625 C 413.238281 210.265625 414.71875 206.46875 417.046875 203.558594 C 415.035156 200.628906 413.574219 196.734375 415.59375 193.574219 C 416.160156 192.691406 416.882813 192.046875 417.707031 191.582031 C 417.667969 191.570313 417.632813 191.558594 417.597656 191.546875 L 417.253906 191.425781 L 416.964844 191.207031 C 416.925781 191.175781 416.886719 191.144531 416.847656 191.113281 C 416.84375 191.113281 416.84375 191.113281 416.839844 191.117188 L 416.683594 191.148438 L 416.523438 191.160156 C 415.480469 191.222656 414.40625 191.070313 413.417969 190.726563 C 412.484375 190.402344 411.609375 189.898438 410.882813 189.21875 C 409.488281 187.902344 408.859375 186.128906 409 184.226563 C 409.128906 182.558594 409.828125 180.953125 410.734375 179.515625 C 409.75 178.386719 408.890625 177.117188 408.339844 175.757813 C 407.621094 173.980469 407.421875 171.964844 408.386719 170.226563 C 410.167969 167.023438 414.296875 167.015625 417.605469 167.671875 C 417.917969 167.285156 418.253906 166.917969 418.613281 166.578125 C 416.988281 166.519531 415.359375 166.785156 413.765625 167.074219 C 412.226563 167.355469 410.339844 167.78125 408.734375 167.539063 C 408.726563 167.542969 408.71875 167.546875 408.710938 167.546875 L 408.554688 167.59375 L 408.394531 167.613281 C 406.414063 167.890625 404.171875 167.265625 402.542969 166.128906 C 399.121094 163.738281 399 160.078125 400.566406 156.765625 C 398.207031 154.160156 396.902344 150.476563 398.492188 147.117188 C 399.308594 145.390625 400.628906 144.277344 402.179688 143.625 C 400.605469 143.996094 398.785156 144.433594 397.238281 144.125 L 396.804688 144.035156 L 396.707031 143.972656 C 396.683594 143.984375 396.65625 143.992188 396.628906 144.003906 L 396.476563 144.054688 L 396.320313 144.085938 C 395.257813 144.300781 394.132813 144.273438 393.078125 144.019531 C 392.269531 143.824219 391.496094 143.488281 390.808594 143.011719 C 387.640625 140.796875 387.9375 137.144531 389.28125 134.03125 C 386.921875 131.730469 385.414063 128.441406 386.625 125.15625 C 388.007813 121.394531 391.929688 120.242188 395.585938 120.359375 C 396.140625 119.566406 396.84375 118.90625 397.707031 118.527344 C 391.089844 110.644531 383.726563 103.304688 375.636719 96.550781 L 373.84375 95.054688 L 380.476563 87.550781 L 382.179688 89.125 C 396.480469 102.355469 408.640625 117.011719 418.535156 132.792969 C 418.746094 132.140625 418.84375 131.457031 418.765625 130.746094 C 418.617188 129.410156 417.882813 127.964844 417.269531 126.78125 C 416.21875 124.75 415.160156 122.816406 414.292969 120.683594 C 411.335938 113.40625 411.257813 105.871094 412.476563 98.191406 L 413.226563 93.472656 L 416.40625 97.039063 C 431.707031 114.171875 424.152344 124.609375 425.058594 143.960938 C 427.628906 148.703125 430.007813 153.535156 432.183594 158.449219 C 432.53125 157.832031 432.761719 157.164063 432.792969 156.417969 C 432.851563 155.054688 432.277344 153.453125 431.8125 152.1875 C 430.988281 149.933594 430.136719 147.789063 429.53125 145.453125 C 427.445313 137.449219 428.59375 129.597656 431.15625 121.835938 L 432.574219 117.542969 L 435.167969 121.25 C 440.1875 128.425781 443.078125 135.617188 442.578125 144.46875 C 442.324219 148.988281 441.257813 153.429688 440.246094 157.828125 C 439.140625 162.621094 438.152344 167.296875 437.6875 172.195313 C 438.90625 175.59375 440.03125 179.023438 441.066406 182.488281 C 441.171875 182.492188 441.296875 182.496094 441.410156 182.496094 C 441.457031 181.683594 441.179688 179.949219 441.105469 179.4375 C 440.714844 176.828125 440.355469 174.3125 440.25 171.667969 C 439.886719 162.800781 442.222656 154.667969 446.476563 146.921875 L 448.667969 142.925781 L 450.535156 147.085938 C 454.253906 155.382813 456.257813 163.410156 453.507813 172.316406 C 452.355469 176.042969 450.554688 179.550781 448.863281 183.054688 C 447.066406 186.785156 445.460938 190.4375 444.230469 194.371094 C 445.441406 199.558594 446.457031 204.808594 447.265625 210.109375 C 447.558594 208.835938 447.433594 207.277344 447.328125 206.042969 C 447.117188 203.507813 446.851563 201.09375 446.914063 198.535156 C 447.128906 189.804688 450.886719 182.355469 456.117188 175.527344 L 458.808594 172.007813 L 460.085938 176.25 C 461.894531 182.246094 462.832031 188.496094 461.898438 194.734375 C 461.160156 199.65625 459.34375 203.972656 456.84375 208.242188 C 454.28125 212.609375 451.199219 216.644531 448.632813 221.007813 C 449.0625 225.351563 449.359375 229.726563 449.515625 234.128906 C 449.625 232.476563 449.792969 230.847656 450.09375 229.179688 C 451.59375 220.960938 455.847656 213.96875 461.417969 207.847656 L 464.777344 204.15625 L 465.347656 209.117188 C 466.132813 215.929688 465.863281 222.789063 463.351563 229.238281 C 461.445313 234.136719 458.566406 238.011719 455.289063 242.042969 C 453.292969 244.496094 451.269531 246.90625 449.523438 249.527344 C 449.390625 253.335938 449.15625 257.160156 448.824219 260.996094 C 448.816406 261.089844 448.804688 261.183594 448.796875 261.277344 C 448.976563 260.476563 449.175781 259.679688 449.414063 258.875 C 451.804688 250.710938 456.855469 244.179688 463.269531 238.710938 L 467.238281 235.324219 L 467.007813 240.535156 C 466.671875 248.089844 465.152344 255.316406 461.285156 261.886719 C 458.40625 266.78125 454.71875 270.457031 450.824219 274.496094 C 449.300781 276.078125 447.808594 277.675781 446.4375 279.382813 C 445.765625 283.285156 444.988281 287.175781 444.109375 291.046875 C 444.464844 290.039063 444.851563 289.042969 445.292969 288.042969 C 448.765625 280.164063 454.515625 274.179688 461.570313 269.347656 L 465.875 266.398438 L 465.09375 271.558594 C 463.859375 279.71875 461.207031 287.054688 455.839844 293.410156 C 451.882813 298.097656 447.1875 301.347656 442.585938 305.269531 C 441.539063 306.160156 440.515625 307.082031 439.542969 308.050781 C 437.550781 314.46875 435.273438 320.804688 432.71875 327.027344 C 432.753906 327.035156 432.789063 327.039063 432.816406 327.039063 C 433.292969 326.726563 434.160156 324.820313 434.375 324.347656 C 435.484375 321.890625 436.488281 319.488281 437.785156 317.109375 C 442.285156 308.863281 448.765625 302.863281 456.886719 298.207031 L 461.410156 295.609375 L 460.222656 300.6875 C 457.742188 311.292969 452.648438 320.050781 444.382813 327.148438 C 441.230469 329.851563 437.8125 332.152344 434.246094 334.269531 C 432.167969 335.5 430.046875 336.648438 427.945313 337.832031 C 425.339844 343.339844 422.507813 348.738281 419.460938 354.007813 C 419.667969 354.144531 419.863281 354.246094 419.996094 354.265625 C 420.511719 354.054688 421.683594 352.242188 421.960938 351.804688 C 423.449219 349.476563 424.808594 347.1875 426.464844 344.957031 C 432.238281 337.195313 439.699219 332.027344 448.65625 328.464844 L 453.503906 326.535156 L 451.605469 331.394531 C 447.601563 341.660156 441.523438 349.699219 432.296875 355.769531 C 431.007813 356.621094 429.6875 357.410156 428.339844 358.15625 C 431.222656 356.886719 434.285156 355.882813 437.582031 355.144531 L 442.785156 353.984375 L 440.011719 358.539063 C 433.988281 368.433594 426.042969 375.359375 415.789063 380.597656 C 411.699219 382.683594 407.46875 384.394531 403.1875 386.050781 C 399.839844 387.347656 396.410156 388.613281 393.152344 390.136719 Z M 412.207031 365.679688 C 408.929688 370.597656 405.449219 375.375 401.777344 379.992188 C 401.867188 380.035156 401.953125 380.058594 402.03125 380.058594 C 402.859375 380.058594 404.609375 378.199219 405.121094 377.644531 C 407.335938 375.253906 409.351563 372.695313 411.605469 370.308594 C 415.3125 366.378906 419.238281 363.140625 423.574219 360.597656 C 422.765625 360.980469 421.957031 361.355469 421.140625 361.722656 C 418.175781 363.058594 415.152344 364.292969 412.207031 365.679688 Z M 407.570313 142.851563 C 407.226563 142.84375 406.882813 142.851563 406.539063 142.871094 C 406.863281 142.878906 407.1875 142.894531 407.515625 142.925781 C 407.53125 142.898438 407.550781 142.875 407.570313 142.851563 Z M 407.570313 142.851563 "/>
<path style=" stroke:none;fill-rule:evenodd;fill:rgb(0%,56.443787%,20.776367%);fill-opacity:1;" d="M 397.027344 378.90625 C 401.914063 361.789063 388.949219 365.722656 384.90625 359.132813 C 378.105469 349.035156 393.835938 338.9375 411.058594 344.144531 C 413.15625 355.730469 407.683594 367.316406 397.027344 378.90625 Z M 397.027344 378.90625 "/>
<path style=" stroke:none;fill-rule:evenodd;fill:rgb(0%,56.443787%,20.776367%);fill-opacity:1;" d="M 410.199219 356.882813 C 422.085938 340.371094 404.351563 342.046875 399.8125 338.1875 C 393.226563 329.152344 408.460938 318.632813 424.859375 322.183594 C 424.496094 332.554688 419.234375 343.882813 410.199219 356.882813 Z M 410.199219 356.882813 "/>
<path style=" stroke:none;fill-rule:evenodd;fill:rgb(0%,56.443787%,20.776367%);fill-opacity:1;" d="M 421.519531 333.25 C 433.167969 312.554688 415.34375 320.808594 411.570313 315.101563 C 405.230469 306.402344 417.636719 296.632813 433.421875 300.046875 C 432.238281 310.753906 429.441406 321.96875 421.519531 333.25 Z M 421.519531 333.25 "/>
<path style=" stroke:none;fill-rule:evenodd;fill:rgb(0%,56.443787%,20.776367%);fill-opacity:1;" d="M 432.597656 310.710938 C 439.453125 288.222656 425.617188 294.839844 421 290.890625 C 415.347656 283.132813 425.1875 270.734375 439.261719 273.78125 C 439.433594 282.800781 437.011719 293.960938 432.597656 310.710938 Z M 432.597656 310.710938 "/>
<path style=" stroke:none;fill-rule:evenodd;fill:rgb(0%,56.443787%,20.776367%);fill-opacity:1;" d="M 437.925781 289.460938 C 445.046875 257.804688 431.027344 269.347656 426.199219 265.972656 C 420.441406 258.296875 428.191406 245.238281 442.308594 248.089844 C 442.605469 257.105469 441.402344 272.246094 437.925781 289.460938 Z M 437.925781 289.460938 "/>
<path style=" stroke:none;fill-rule:evenodd;fill:rgb(0%,56.443787%,20.776367%);fill-opacity:1;" d="M 442.003906 257.378906 C 443.507813 233.652344 433.414063 241.96875 426.863281 240.769531 C 419.964844 234.097656 428.769531 218.527344 441.792969 222.308594 C 442.59375 231.160156 441.917969 236.414063 442.003906 257.378906 Z M 442.003906 257.378906 "/>
<path style=" stroke:none;fill-rule:evenodd;fill:rgb(0%,56.443787%,20.776367%);fill-opacity:1;" d="M 441.160156 232.363281 C 441.75 205.425781 428.667969 216.820313 424.21875 213.8125 C 418.054688 207.847656 424.289063 195.179688 437.148438 195.703125 C 438.679688 203.617188 441.796875 216.679688 441.160156 232.363281 Z M 441.160156 232.363281 "/>
<path style=" stroke:none;fill-rule:evenodd;fill:rgb(0%,56.443787%,20.776367%);fill-opacity:1;" d="M 440.601563 206.359375 C 434.539063 180.792969 422.988281 191.027344 418.34375 189.40625 C 411.96875 184.53125 417.441406 169.835938 429.449219 168.933594 C 431.730469 176.121094 439.496094 191.71875 440.601563 206.359375 Z M 440.601563 206.359375 "/>
<path style=" stroke:none;fill-rule:evenodd;fill:rgb(0%,56.443787%,20.776367%);fill-opacity:1;" d="M 431.832031 177.859375 C 425.710938 157.601563 413.136719 166.382813 408.773438 165.238281 C 402.597656 161.242188 408.71875 149.09375 419.625 147.402344 C 422.226563 153.804688 427.832031 161.144531 431.832031 177.859375 Z M 431.832031 177.859375 "/>
<path style=" stroke:none;fill-rule:evenodd;fill:rgb(0%,56.443787%,20.776367%);fill-opacity:1;" d="M 421.652344 153.621094 C 413.503906 133.679688 402.105469 142.789063 397.683594 141.898438 C 393.902344 139.414063 394.355469 126.550781 405.144531 124.21875 C 408.117188 130.460938 418.8125 140.46875 421.652344 153.621094 Z M 421.652344 153.621094 "/>
<path style="fill-rule:evenodd;fill:rgb(100%,100%,100%);fill-opacity:1;stroke-width:28.345;stroke-linecap:butt;stroke-linejoin:miter;stroke:rgb(10.594177%,9.812927%,9.423828%);stroke-opacity:1;stroke-miterlimit:4;" d="M 3833.476563 1171.539063 C 3778.085938 1218.414063 3744.101563 1279.585938 3848.007813 1343.335938 C 3873.984375 1477.242188 3967.109375 1492.789063 4043.945313 1417.398438 C 4187.890625 1419.195313 4140 1254.078125 4054.101563 1321.109375 C 4024.570313 1294.976563 4000.859375 1283.609375 3971.367188 1304.820313 C 3945.234375 1256.460938 3917.1875 1241.65625 3887.1875 1260.40625 C 3892.5 1222.90625 3874.609375 1193.257813 3833.476563 1171.539063 Z M 3833.476563 1171.539063 " transform="matrix(0.1,0,0,-0.1,0,476.4)"/>
<path style="fill-rule:evenodd;fill:rgb(100%,100%,100%);fill-opacity:1;stroke-width:27.645;stroke-linecap:butt;stroke-linejoin:miter;stroke:rgb(10.594177%,9.812927%,9.423828%);stroke-opacity:1;stroke-miterlimit:4;" d="M 3970.820313 1374.117188 C 3917.695313 1414.078125 3884.609375 1469.390625 3982.265625 1538.335938 C 4005.117188 1667.554688 4093.203125 1689.859375 4167.03125 1624.507813 C 4303.476563 1637.90625 4260.3125 1477.242188 4177.96875 1533.960938 C 4150.3125 1506.734375 4128.007813 1494.039063 4099.726563 1511.8125 C 4075.625 1463.765625 4049.21875 1447.4375 4020.546875 1462.789063 C 4026.09375 1427.632813 4009.53125 1398.0625 3970.820313 1374.117188 Z M 3970.820313 1374.117188 " transform="matrix(0.1,0,0,-0.1,0,476.4)"/>
<path style="fill-rule:evenodd;fill:rgb(100%,100%,100%);fill-opacity:1;stroke-width:27.624;stroke-linecap:butt;stroke-linejoin:miter;stroke:rgb(10.594177%,9.812927%,9.423828%);stroke-opacity:1;stroke-miterlimit:4;" d="M 4102.617188 1616.1875 C 4051.445313 1654.664063 4012.890625 1691.226563 4098.554688 1760.40625 C 4072.617188 1888.921875 4150 1912.242188 4258.359375 1846.109375 C 4389.726563 1859 4360.664063 1723.804688 4281.367188 1778.375 C 4254.804688 1752.164063 4240.234375 1732.984375 4213.046875 1750.09375 C 4203.710938 1695.523438 4172.929688 1689.507813 4145.3125 1704.3125 C 4158.984375 1667.671875 4148.203125 1612.828125 4102.617188 1616.1875 Z M 4102.617188 1616.1875 " transform="matrix(0.1,0,0,-0.1,0,476.4)"/>
<path style="fill-rule:evenodd;fill:rgb(100%,100%,100%);fill-opacity:1;stroke-width:27.623;stroke-linecap:butt;stroke-linejoin:miter;stroke:rgb(10.594177%,9.812927%,9.423828%);stroke-opacity:1;stroke-miterlimit:4;" d="M 4185.898438 1853.570313 C 4145.859375 1862.828125 4089.648438 1932.554688 4173.476563 1991.734375 C 4142.148438 2077.28125 4191.953125 2136.460938 4286.25 2087.984375 C 4428.359375 2134.195313 4415 1980.992188 4344.296875 2029.664063 C 4320.546875 1998.179688 4297.226563 1976.65625 4272.96875 2002.320313 C 4268.945313 1948.570313 4257.382813 1929 4224.414063 1933.882813 C 4229.179688 1903.6875 4235.78125 1876.890625 4185.898438 1853.570313 Z M 4185.898438 1853.570313 " transform="matrix(0.1,0,0,-0.1,0,476.4)"/>
<path style="fill-rule:evenodd;fill:rgb(100%,100%,100%);fill-opacity:1;stroke-width:27.615;stroke-linecap:butt;stroke-linejoin:miter;stroke:rgb(10.594177%,9.812927%,9.423828%);stroke-opacity:1;stroke-miterlimit:4;" d="M 4229.140625 2111.226563 C 4188.984375 2119.9375 4157.148438 2170.992188 4205.429688 2228.53125 C 4167.109375 2312.125 4227.421875 2394.585938 4318.125 2331.890625 C 4403.398438 2422.515625 4455 2281.226563 4371.757813 2281.421875 C 4362.226563 2257.710938 4336.289063 2227.125 4311.796875 2242.046875 C 4316.679688 2194.976563 4287.265625 2179.234375 4261.054688 2187.945313 C 4285.703125 2160.5625 4265.195313 2108.609375 4229.140625 2111.226563 Z M 4229.140625 2111.226563 " transform="matrix(0.1,0,0,-0.1,0,476.4)"/>
<path style="fill-rule:evenodd;fill:rgb(100%,100%,100%);fill-opacity:1;stroke-width:27.147;stroke-linecap:butt;stroke-linejoin:miter;stroke:rgb(10.594177%,9.812927%,9.423828%);stroke-opacity:1;stroke-miterlimit:4;" d="M 4246.132813 2363.648438 C 4209.257813 2370.09375 4144.882813 2407.085938 4214.0625 2476.539063 C 4151.015625 2551.109375 4215.390625 2622.359375 4296.484375 2588.023438 C 4383.046875 2647.945313 4420.3125 2539.507813 4356.132813 2534.898438 C 4336.757813 2507.789063 4328.085938 2488.21875 4301.5625 2499.078125 C 4307.695313 2456.304688 4294.6875 2431.65625 4268.164063 2440.445313 C 4278.046875 2411.5 4282.148438 2366.773438 4246.132813 2363.648438 Z M 4246.132813 2363.648438 " transform="matrix(0.1,0,0,-0.1,0,476.4)"/>
<path style="fill-rule:evenodd;fill:rgb(100%,100%,100%);fill-opacity:1;stroke-width:27.148;stroke-linecap:butt;stroke-linejoin:miter;stroke:rgb(10.594177%,9.812927%,9.423828%);stroke-opacity:1;stroke-miterlimit:4;" d="M 4218.710938 2622.203125 C 4181.992188 2624.234375 4135.078125 2662.28125 4199.804688 2727.242188 C 4143.476563 2793.882813 4165.585938 2854.078125 4258.28125 2830.171875 C 4320.742188 2890.210938 4386.054688 2795.71875 4312.539063 2803.609375 C 4295.234375 2779.390625 4274.492188 2754.351563 4250.78125 2764.039063 C 4268.046875 2732.90625 4289.140625 2704.585938 4234.882813 2694.390625 C 4243.710938 2668.53125 4250.859375 2624.976563 4218.710938 2622.203125 Z M 4218.710938 2622.203125 " transform="matrix(0.1,0,0,-0.1,0,476.4)"/>
<path style="fill-rule:evenodd;fill:rgb(100%,100%,100%);fill-opacity:1;stroke-width:26.374;stroke-linecap:butt;stroke-linejoin:miter;stroke:rgb(10.594177%,9.812927%,9.423828%);stroke-opacity:1;stroke-miterlimit:4;" d="M 4163.828125 2875.054688 C 4129.53125 2872.984375 4083.554688 2903.6875 4136.679688 2971.070313 C 4077.148438 3026.890625 4087.617188 3088.492188 4185.898438 3061.695313 C 4233.984375 3142.828125 4304.6875 3052.90625 4237.65625 3034.234375 C 4231.171875 3005.210938 4219.765625 2985.445313 4192.539063 2994.703125 C 4204.296875 2956.734375 4205.664063 2933.140625 4171.640625 2937.90625 C 4182.617188 2914.820313 4193.4375 2881.109375 4163.828125 2875.054688 Z M 4163.828125 2875.054688 " transform="matrix(0.1,0,0,-0.1,0,476.4)"/>
<path style="fill-rule:evenodd;fill:rgb(100%,100%,100%);fill-opacity:1;stroke-width:25.645;stroke-linecap:butt;stroke-linejoin:miter;stroke:rgb(10.594177%,9.812927%,9.423828%);stroke-opacity:1;stroke-miterlimit:4;" d="M 4080.78125 3110.328125 C 4049.609375 3105.953125 3990.390625 3135.25 4034.101563 3200.601563 C 3975.625 3247.359375 3994.609375 3327.75 4086.328125 3310.328125 C 4125 3385.601563 4220.46875 3268.140625 4139.726563 3276.8125 C 4129.179688 3253.570313 4125.429688 3227.984375 4103.867188 3232.242188 C 4100.390625 3197.046875 4101.914063 3176.617188 4080.664063 3179.273438 C 4092.382813 3159 4107.382813 3117.984375 4080.78125 3110.328125 Z M 4080.78125 3110.328125 " transform="matrix(0.1,0,0,-0.1,0,476.4)"/>
<path style="fill-rule:evenodd;fill:rgb(100%,100%,100%);fill-opacity:1;stroke-width:24.996;stroke-linecap:butt;stroke-linejoin:miter;stroke:rgb(10.594177%,9.812927%,9.423828%);stroke-opacity:1;stroke-miterlimit:4;" d="M 3958.75 3345.367188 C 3927.851563 3339.15625 3881.367188 3361.65625 3921.132813 3429.507813 C 3860.039063 3472.710938 3875.976563 3548.648438 3968.554688 3536.65625 C 3997.851563 3604.234375 4057.65625 3500.5625 4024.140625 3496.03125 C 4014.960938 3472.203125 4011.992188 3458.53125 3990.234375 3461.5 C 3988.828125 3426.148438 3984.414063 3414.742188 3963.046875 3416.1875 C 3975.9375 3396.617188 3984.84375 3354.585938 3958.75 3345.367188 Z M 3958.75 3345.367188 " transform="matrix(0.1,0,0,-0.1,0,476.4)"/>
<path style=" stroke:none;fill-rule:evenodd;fill:rgb(100%,92.576599%,0%);fill-opacity:1;" d="M 414.714844 98.546875 C 429.707031 115.335938 421.445313 124.625 422.878906 145.605469 C 422.355469 142.910156 417.222656 139.097656 418.933594 136.742188 C 426.671875 126.09375 410.519531 125.023438 414.714844 98.546875 Z M 414.714844 98.546875 "/>
<path style=" stroke:none;fill-rule:evenodd;fill:rgb(100%,92.576599%,0%);fill-opacity:1;" d="M 433.308594 122.546875 C 446.796875 141.828125 437.136719 152.039063 435.371094 172.613281 C 435.199219 169.875 430.015625 164.449219 432.664063 161.570313 C 440.863281 152.660156 424.730469 148.515625 433.308594 122.546875 Z M 433.308594 122.546875 "/>
<path style=" stroke:none;fill-rule:evenodd;fill:rgb(100%,92.576599%,0%);fill-opacity:1;" d="M 448.464844 148.011719 C 458.609375 170.640625 447.257813 175.769531 441.710938 194.863281 C 442.042969 192.136719 437.769531 184.476563 440.667969 184.730469 C 449.269531 185.488281 435.300781 171.984375 448.464844 148.011719 Z M 448.464844 148.011719 "/>
<path style=" stroke:none;fill-rule:evenodd;fill:rgb(100%,92.576599%,0%);fill-opacity:1;" d="M 457.917969 176.90625 C 464.753906 199.613281 453.167969 208.078125 445.902344 221.214844 C 446.550781 218.546875 443.59375 216.675781 446.046875 215.113281 C 455.851563 208.878906 440.859375 199.175781 457.917969 176.90625 Z M 457.917969 176.90625 "/>
<path style=" stroke:none;fill-rule:evenodd;fill:rgb(100%,92.576599%,0%);fill-opacity:1;" d="M 463.09375 209.375 C 465.796875 232.855469 453.269531 238.238281 446.226563 250.546875 C 447.097656 247.945313 444.257813 240.078125 447.050781 240.890625 C 457.183594 243.832031 444.210938 230.121094 463.09375 209.375 Z M 463.09375 209.375 "/>
<path style=" stroke:none;fill-rule:evenodd;fill:rgb(100%,92.576599%,0%);fill-opacity:1;" d="M 464.742188 240.433594 C 463.691406 264.066406 451.15625 268.648438 443.152344 279.976563 C 444.34375 277.5 442.515625 269.339844 445.1875 270.496094 C 454.867188 274.691406 443.398438 258.640625 464.742188 240.433594 Z M 464.742188 240.433594 "/>
<path style=" stroke:none;fill-rule:evenodd;fill:rgb(100%,92.576599%,0%);fill-opacity:1;" d="M 462.851563 271.21875 C 459.316406 294.609375 445.386719 297.839844 436.234375 308.261719 C 437.679688 305.925781 436.722656 297.617188 439.253906 299.050781 C 448.4375 304.242188 439.707031 287.070313 462.851563 271.21875 Z M 462.851563 271.21875 "/>
<path style=" stroke:none;fill-rule:evenodd;fill:rgb(100%,92.576599%,0%);fill-opacity:1;" d="M 458.015625 300.171875 C 452.425781 324.074219 434.566406 331.21875 424.238281 337.351563 C 425.925781 335.058594 427.503906 326.464844 430.003906 328.15625 C 439.074219 334.285156 432.765625 314.660156 458.015625 300.171875 Z M 458.015625 300.171875 "/>
<path style=" stroke:none;fill-rule:evenodd;fill:rgb(100%,92.576599%,0%);fill-opacity:1;" d="M 449.496094 330.570313 C 440.339844 354.039063 422.640625 358.027344 409.980469 364.230469 C 412.027344 362.144531 414.671875 352.84375 416.96875 354.925781 C 425.292969 362.472656 421.738281 341.617188 449.496094 330.570313 Z M 449.496094 330.570313 "/>
<path style=" stroke:none;fill-rule:evenodd;fill:rgb(100%,92.576599%,0%);fill-opacity:1;" d="M 438.074219 357.359375 C 424.980469 378.878906 404.582031 382.039063 391.300781 388.507813 C 393.679688 386.808594 396.878906 378.046875 398.871094 380.417969 C 406.460938 389.476563 409.855469 363.667969 438.074219 357.359375 Z M 438.074219 357.359375 "/>
<path style=" stroke:none;fill-rule:evenodd;fill:rgb(100%,92.576599%,0%);fill-opacity:1;" d="M 368.234375 410.300781 C 456.207031 341.09375 485.003906 187.34375 380.640625 90.792969 L 377.085938 94.808594 C 485.515625 185.304688 440.980469 358.976563 367.300781 402.84375 Z M 368.234375 410.300781 "/>
<path style=" stroke:none;fill-rule:evenodd;fill:rgb(100%,92.576599%,0%);fill-opacity:1;" d="M 331.269531 407.003906 L 375.523438 363.992188 L 368.90625 409.898438 L 420.1875 399.148438 C 389.03125 433.058594 354.933594 457.597656 317.160156 472.761719 Z M 331.269531 407.003906 "/>
<g clip-path="url(#clip1)" clip-rule="nonzero">
<path style="fill:none;stroke-width:36.85;stroke-linecap:butt;stroke-linejoin:miter;stroke:rgb(10.594177%,9.812927%,9.423828%);stroke-opacity:1;stroke-miterlimit:4;" d="M 3312.695313 693.960938 L 3755.234375 1124.078125 L 3689.0625 665.015625 L 4201.875 772.515625 C 3890.3125 433.414063 3549.335938 188.023438 3171.601563 36.382813 Z M 3312.695313 693.960938 " transform="matrix(0.1,0,0,-0.1,0,476.4)"/>
</g>
<path style="fill:none;stroke-width:22.678;stroke-linecap:butt;stroke-linejoin:miter;stroke:rgb(10.594177%,9.812927%,9.423828%);stroke-opacity:1;stroke-miterlimit:4;" d="M 3734.53125 962.789063 L 3385.859375 648.101563 " transform="matrix(0.1,0,0,-0.1,0,476.4)"/>
<path style="fill:none;stroke-width:22.677;stroke-linecap:butt;stroke-linejoin:miter;stroke:rgb(10.594177%,9.812927%,9.423828%);stroke-opacity:1;stroke-miterlimit:4;" d="M 4061.25 743.570313 C 3834.492188 532.320313 3598.75 352.4375 3349.921875 218.335938 " transform="matrix(0.1,0,0,-0.1,0,476.4)"/>
<path style=" stroke:none;fill-rule:evenodd;fill:rgb(100%,92.576599%,0%);fill-opacity:1;" d="M 142.265625 406.589844 L 98.011719 363.578125 L 104.628906 409.484375 L 53.347656 398.734375 C 84.503906 432.644531 116.414063 456.453125 154.183594 471.617188 Z M 142.265625 406.589844 "/>
<g clip-path="url(#clip2)" clip-rule="nonzero">
<path style="fill:none;stroke-width:36.85;stroke-linecap:butt;stroke-linejoin:miter;stroke:rgb(10.594177%,9.812927%,9.423828%);stroke-opacity:1;stroke-miterlimit:4;" d="M 1422.65625 698.101563 L 980.117188 1128.21875 L 1046.289063 669.15625 L 533.476563 776.65625 C 845.039063 437.554688 1164.140625 199.46875 1541.835938 47.828125 Z M 1422.65625 698.101563 " transform="matrix(0.1,0,0,-0.1,0,476.4)"/>
</g>
<path style="fill:none;stroke-width:22.677;stroke-linecap:butt;stroke-linejoin:miter;stroke:rgb(10.594177%,9.812927%,9.423828%);stroke-opacity:1;stroke-miterlimit:4;" d="M 1000.820313 966.929688 L 1339.960938 660.875 " transform="matrix(0.1,0,0,-0.1,0,476.4)"/>
<path style="fill:none;stroke-width:22.677;stroke-linecap:butt;stroke-linejoin:miter;stroke:rgb(10.594177%,9.812927%,9.423828%);stroke-opacity:1;stroke-miterlimit:4;" d="M 674.101563 747.710938 C 900.859375 536.460938 1136.601563 356.539063 1385.429688 222.476563 " transform="matrix(0.1,0,0,-0.1,0,476.4)"/>
<path style=" stroke:none;fill-rule:evenodd;fill:rgb(100%,92.576599%,0%);fill-opacity:1;" d="M 303.925781 452.085938 C 307.71875 462.632813 310.382813 470.8125 317.480469 473.636719 C 331.648438 459.679688 346.285156 443.890625 353.097656 429.289063 Z M 303.925781 452.085938 "/>
<g clip-path="url(#clip3)" clip-rule="nonzero">
<path style="fill:none;stroke-width:36.85;stroke-linecap:butt;stroke-linejoin:miter;stroke:rgb(10.594177%,9.812927%,9.423828%);stroke-opacity:1;stroke-miterlimit:4;" d="M 3039.257813 243.140625 C 3077.1875 137.671875 3103.828125 55.875 3174.804688 27.632813 C 3316.484375 167.203125 3462.851563 325.09375 3530.976563 471.109375 Z M 3039.257813 243.140625 " transform="matrix(0.1,0,0,-0.1,0,476.4)"/>
</g>
<path style=" stroke:none;fill-rule:evenodd;fill:rgb(100%,92.576599%,0%);fill-opacity:1;" d="M 170.066406 451.210938 C 166.277344 461.757813 161.773438 469.9375 154.671875 472.761719 C 140.507813 458.804688 130.011719 440.257813 121.359375 425.195313 Z M 170.066406 451.210938 "/>
<g clip-path="url(#clip4)" clip-rule="nonzero">
<path style="fill:none;stroke-width:36.85;stroke-linecap:butt;stroke-linejoin:miter;stroke:rgb(10.594177%,9.812927%,9.423828%);stroke-opacity:1;stroke-miterlimit:4;" d="M 1700.664063 251.890625 C 1662.773438 146.421875 1617.734375 64.625 1546.71875 36.382813 C 1405.078125 175.953125 1300.117188 361.421875 1213.59375 512.046875 Z M 1700.664063 251.890625 " transform="matrix(0.1,0,0,-0.1,0,476.4)"/>
</g>
<path style=" stroke:none;fill-rule:evenodd;fill:rgb(100%,92.576599%,0%);fill-opacity:1;" d="M 155.5 385.5 C 207.75 419.273438 267.441406 418.722656 316.792969 386.324219 L 353.601563 428.921875 C 275.074219 473.019531 197.496094 476.363281 121.171875 425.613281 Z M 155.5 385.5 "/>
<g clip-path="url(#clip5)" clip-rule="nonzero">
<path style="fill:none;stroke-width:36.85;stroke-linecap:butt;stroke-linejoin:miter;stroke:rgb(10.594177%,9.812927%,9.423828%);stroke-opacity:1;stroke-miterlimit:4;" d="M 1555 909 C 2077.5 571.265625 2674.414063 576.773438 3167.929688 900.757813 L 3536.015625 474.78125 C 2750.742188 33.804688 1974.960938 0.367188 1211.71875 507.867188 Z M 1555 909 " transform="matrix(0.1,0,0,-0.1,0,476.4)"/>
</g>
<path style="fill:none;stroke-width:22.677;stroke-linecap:butt;stroke-linejoin:miter;stroke:rgb(10.594177%,9.812927%,9.423828%);stroke-opacity:1;stroke-miterlimit:4;" d="M 1505.390625 838.6875 C 2124.335938 468.21875 2690.9375 510.25 3221.71875 834.585938 " transform="matrix(0.1,0,0,-0.1,0,476.4)"/>
<path style="fill:none;stroke-width:22.711;stroke-linecap:butt;stroke-linejoin:miter;stroke:rgb(10.594177%,9.812927%,9.423828%);stroke-opacity:1;stroke-miterlimit:4;" d="M 1265.507813 565.757813 C 2039.609375 81.539063 2793.671875 126.34375 3457.460938 557.476563 " transform="matrix(0.1,0,0,-0.1,0,476.4)"/>
<path style="fill-rule:evenodd;fill:rgb(100%,92.576599%,0%);fill-opacity:1;stroke-width:56.468;stroke-linecap:butt;stroke-linejoin:miter;stroke:rgb(10.594177%,9.812927%,9.423828%);stroke-opacity:1;stroke-miterlimit:4;" d="M 819.726563 4108.179688 C 906.835938 4194.039063 999.804688 4272.398438 1097.96875 4342.398438 L 1210.546875 4249.703125 L 1406.328125 4366.539063 L 1390.898438 4518.414063 C 1505.429688 4575.328125 1625.15625 4621.929688 1749.257813 4657.203125 L 1835.820313 4510.328125 L 2051.601563 4552.632813 L 2098.320313 4724.195313 C 2171.835938 4732.046875 2243.4375 4736.03125 2319.101563 4736.03125 C 2319.921875 4736.03125 2320.742188 4735.992188 2321.5625 4735.992188 C 2387.421875 4735.914063 2452.617188 4732.75 2517.03125 4726.65625 L 2562.773438 4558.53125 L 2784.414063 4512.59375 L 2873.945313 4660.914063 C 3000.351563 4625.992188 3124.726563 4583.921875 3239.21875 4522.320313 L 3213.085938 4369.15625 L 3400.742188 4245.71875 L 3529.179688 4351.578125 C 3629.882813 4286.929688 3726.445313 4194.351563 3807.226563 4107.554688 L 3712.148438 3980.5625 L 3826.484375 3841.148438 L 3603.203125 3636.65625 C 3030.742188 4447.203125 1643.164063 4490.523438 1003.984375 3650.835938 L 792.5 3850.523438 L 902.03125 3971.890625 Z M 819.726563 4108.179688 " transform="matrix(0.1,0,0,-0.1,0,476.4)"/>
<path style="fill-rule:evenodd;fill:rgb(100%,92.576599%,0%);fill-opacity:1;stroke-width:56.693;stroke-linecap:butt;stroke-linejoin:miter;stroke:rgb(10.594177%,9.812927%,9.423828%);stroke-opacity:1;stroke-miterlimit:4;" d="M 990.507813 3776.148438 C 1624.335938 4572.75 3072.695313 4519.117188 3620.859375 3773.101563 L 3700.390625 3846.5 L 3611.71875 3956.617188 L 3678.984375 4094.234375 L 3535.234375 4231.890625 L 3406.757813 4137.046875 L 3116.210938 4314.46875 L 3134.570313 4473.492188 L 2923.515625 4553.023438 L 2828.710938 4406.226563 L 2498.359375 4479.625 L 2443.320313 4641.734375 L 2171.09375 4641.734375 L 2125.234375 4482.671875 L 1788.789063 4418.453125 L 1706.210938 4549.976563 L 1489.0625 4473.492188 L 1510.46875 4323.648438 L 1216.835938 4137.046875 L 1088.359375 4234.9375 L 944.609375 4097.28125 L 1014.960938 3962.710938 L 917.109375 3855.679688 Z M 990.507813 3776.148438 " transform="matrix(0.1,0,0,-0.1,0,476.4)"/>
<path style=" stroke:none;fill-rule:evenodd;fill:rgb(10.594177%,9.812927%,9.423828%);fill-opacity:1;" d="M 146.957031 422.785156 L 153.847656 409.832031 L 155.984375 410.96875 L 152.925781 416.71875 L 160.328125 413.277344 L 163.21875 414.8125 L 156.53125 417.730469 L 156.539063 427.882813 L 153.765625 426.40625 L 154.070313 418.769531 L 151.179688 420.007813 L 149.097656 423.925781 Z M 159.953125 421.703125 C 160.609375 420.082031 161.386719 418.84375 162.289063 417.992188 C 163.191406 417.136719 164.136719 416.605469 165.117188 416.40625 C 166.097656 416.203125 167.136719 416.328125 168.238281 416.773438 C 169.835938 417.417969 170.890625 418.550781 171.40625 420.175781 C 171.917969 421.800781 171.71875 423.742188 170.808594 425.992188 C 169.890625 428.269531 168.636719 429.832031 167.054688 430.683594 C 165.664063 431.441406 164.167969 431.492188 162.566406 430.84375 C 160.949219 430.191406 159.902344 429.117188 159.421875 427.621094 C 158.875 425.910156 159.050781 423.9375 159.953125 421.703125 Z M 162.308594 422.550781 C 161.675781 424.113281 161.5 425.40625 161.777344 426.429688 C 162.058594 427.453125 162.632813 428.140625 163.515625 428.496094 C 164.398438 428.851563 165.289063 428.757813 166.183594 428.21875 C 167.078125 427.679688 167.851563 426.605469 168.5 424.996094 C 169.136719 423.417969 169.324219 422.136719 169.066406 421.152344 C 168.804688 420.167969 168.21875 419.492188 167.300781 419.125 C 166.386719 418.753906 165.484375 418.832031 164.605469 419.359375 C 163.71875 419.890625 162.953125 420.953125 162.308594 422.550781 Z M 169.753906 433.480469 L 174.773438 419.691406 L 178.445313 421.027344 C 179.8125 421.527344 180.679688 421.917969 181.050781 422.203125 C 181.644531 422.660156 182.03125 423.316406 182.214844 424.167969 C 182.398438 425.023438 182.292969 426 181.890625 427.097656 C 181.527344 428.097656 181.035156 428.863281 180.414063 429.398438 C 179.792969 429.9375 179.148438 430.238281 178.484375 430.304688 C 177.824219 430.371094 176.800781 430.15625 175.421875 429.652344 L 173.925781 429.109375 L 172.03125 434.3125 Z M 176.199219 422.855469 L 174.777344 426.765625 L 176.039063 427.226563 C 176.886719 427.535156 177.484375 427.683594 177.832031 427.675781 C 178.175781 427.667969 178.503906 427.542969 178.8125 427.300781 C 179.121094 427.0625 179.355469 426.71875 179.519531 426.265625 C 179.683594 425.808594 179.726563 425.386719 179.640625 425 C 179.554688 424.613281 179.382813 424.316406 179.125 424.097656 C 178.871094 423.882813 178.265625 423.605469 177.3125 423.257813 Z M 180.386719 437.09375 L 184.429688 422.988281 L 193.015625 425.449219 L 192.332031 427.835938 L 186.074219 426.042969 L 185.179688 429.171875 L 190.992188 430.835938 L 190.3125 433.210938 L 184.496094 431.542969 L 183.398438 435.382813 L 189.863281 437.238281 L 189.183594 439.617188 Z M 191.207031 440.289063 L 194.257813 425.9375 L 199.261719 427 C 200.539063 427.273438 201.429688 427.597656 201.921875 427.972656 C 202.414063 428.34375 202.773438 428.890625 202.988281 429.597656 C 203.207031 430.3125 203.21875 431.109375 203.03125 431.996094 C 202.789063 433.121094 202.332031 433.96875 201.648438 434.539063 C 200.960938 435.109375 200.105469 435.378906 199.078125 435.339844 C 199.507813 435.816406 199.84375 436.304688 200.082031 436.808594 C 200.324219 437.3125 200.613281 438.1875 200.949219 439.433594 L 201.78125 442.539063 L 198.953125 441.9375 L 197.894531 438.445313 C 197.515625 437.1875 197.242188 436.390625 197.082031 436.058594 C 196.921875 435.726563 196.722656 435.484375 196.5 435.320313 C 196.277344 435.160156 195.890625 435.023438 195.339844 434.90625 L 194.851563 434.800781 L 193.578125 440.792969 Z M 195.335938 432.507813 L 197.101563 432.882813 C 198.179688 433.113281 198.875 433.210938 199.1875 433.179688 C 199.5 433.148438 199.777344 433.011719 200.023438 432.761719 C 200.265625 432.511719 200.441406 432.148438 200.542969 431.671875 C 200.640625 431.214844 200.625 430.828125 200.5 430.511719 C 200.375 430.195313 200.167969 429.953125 199.878906 429.78125 C 199.671875 429.664063 199.035156 429.492188 197.972656 429.265625 L 196.109375 428.871094 Z M 213.648438 444.382813 L 211.039063 443.96875 L 210.523438 440.511719 L 205.777344 439.761719 L 204.277344 442.898438 L 201.726563 442.496094 L 208.648438 428.734375 L 211.191406 429.136719 Z M 210.140625 437.949219 L 209.359375 432.3125 L 206.898438 437.4375 Z M 214.882813 439.636719 L 217.269531 439.5625 C 217.375 441.453125 218.164063 442.464844 219.640625 442.597656 C 220.367188 442.660156 220.960938 442.519531 221.414063 442.171875 C 221.867188 441.828125 222.117188 441.371094 222.167969 440.808594 C 222.195313 440.472656 222.148438 440.183594 222.023438 439.941406 C 221.898438 439.691406 221.6875 439.484375 221.402344 439.308594 C 221.117188 439.128906 220.414063 438.820313 219.296875 438.363281 C 218.292969 437.960938 217.566406 437.558594 217.121094 437.148438 C 216.675781 436.742188 216.335938 436.230469 216.105469 435.609375 C 215.875 434.988281 215.789063 434.335938 215.851563 433.652344 C 215.921875 432.855469 216.164063 432.152344 216.578125 431.546875 C 217 430.941406 217.542969 430.5 218.207031 430.230469 C 218.875 429.960938 219.675781 429.867188 220.617188 429.949219 C 222.023438 430.074219 223.089844 430.550781 223.8125 431.386719 C 224.539063 432.21875 224.863281 433.351563 224.78125 434.777344 L 222.351563 434.695313 C 222.3125 433.898438 222.128906 433.332031 221.804688 432.988281 C 221.480469 432.644531 220.992188 432.445313 220.339844 432.386719 C 219.691406 432.332031 219.175781 432.421875 218.800781 432.664063 C 218.421875 432.90625 218.214844 433.226563 218.179688 433.636719 C 218.144531 434.035156 218.277344 434.382813 218.574219 434.683594 C 218.867188 434.988281 219.578125 435.347656 220.695313 435.773438 C 221.882813 436.234375 222.730469 436.683594 223.238281 437.117188 C 223.742188 437.554688 224.113281 438.09375 224.347656 438.730469 C 224.578125 439.371094 224.65625 440.128906 224.582031 441.007813 C 224.46875 442.277344 223.984375 443.308594 223.128906 444.105469 C 222.269531 444.902344 221.011719 445.226563 219.351563 445.082031 C 216.414063 444.824219 214.921875 443.011719 214.882813 439.636719 Z M 226.21875 445.425781 L 226.988281 430.769531 L 229.40625 430.898438 L 228.636719 445.550781 Z M 235.363281 445.773438 L 235.363281 431.101563 L 237.785156 431.101563 L 237.785156 445.773438 Z M 240.136719 445.546875 L 239.878906 430.875 L 242.246094 430.835938 L 247.335938 440.546875 L 247.167969 430.75 L 249.429688 430.710938 L 249.683594 445.382813 L 247.242188 445.425781 L 242.230469 435.941406 L 242.398438 445.507813 Z M 250.949219 430.4375 L 255.363281 430.050781 C 256.480469 429.953125 257.332031 430.003906 257.925781 430.203125 C 258.515625 430.402344 259.074219 430.777344 259.605469 431.328125 C 260.136719 431.875 260.578125 432.613281 260.933594 433.53125 C 261.289063 434.453125 261.527344 435.609375 261.652344 437.011719 C 261.761719 438.28125 261.714844 439.386719 261.511719 440.347656 C 261.308594 441.308594 261.007813 442.078125 260.617188 442.664063 C 260.222656 443.246094 259.734375 443.703125 259.132813 444.03125 C 258.535156 444.363281 257.75 444.570313 256.769531 444.65625 L 252.226563 445.054688 Z M 253.574219 432.699219 L 254.421875 442.378906 L 256.238281 442.21875 C 257.015625 442.152344 257.574219 442.03125 257.90625 441.855469 C 258.246094 441.679688 258.511719 441.429688 258.707031 441.117188 C 258.90625 440.800781 259.050781 440.316406 259.140625 439.664063 C 259.230469 439.015625 259.226563 438.167969 259.136719 437.125 C 259.042969 436.042969 258.890625 435.195313 258.6875 434.582031 C 258.484375 433.972656 258.207031 433.496094 257.859375 433.167969 C 257.511719 432.835938 257.109375 432.632813 256.648438 432.5625 C 256.300781 432.503906 255.644531 432.519531 254.671875 432.601563 Z M 262.625 436.664063 C 262.320313 434.941406 262.320313 433.480469 262.636719 432.277344 C 262.949219 431.074219 263.46875 430.125 264.191406 429.433594 C 264.917969 428.746094 265.867188 428.296875 267.035156 428.089844 C 268.734375 427.792969 270.226563 428.195313 271.523438 429.300781 C 272.820313 430.410156 273.679688 432.15625 274.101563 434.550781 C 274.527344 436.964844 274.296875 438.957031 273.40625 440.515625 C 272.625 441.894531 271.382813 442.730469 269.683594 443.03125 C 267.964844 443.335938 266.507813 442.976563 265.304688 441.964844 C 263.933594 440.804688 263.042969 439.035156 262.625 436.664063 Z M 265.070313 436.132813 C 265.363281 437.792969 265.898438 438.984375 266.671875 439.703125 C 267.453125 440.421875 268.308594 440.703125 269.242188 440.539063 C 270.179688 440.371094 270.886719 439.820313 271.359375 438.886719 C 271.832031 437.953125 271.914063 436.636719 271.613281 434.925781 C 271.320313 433.25 270.800781 432.066406 270.058594 431.367188 C 269.316406 430.671875 268.460938 430.410156 267.488281 430.582031 C 266.515625 430.753906 265.792969 431.296875 265.324219 432.210938 C 264.855469 433.132813 264.769531 434.4375 265.070313 436.132813 Z M 277.242188 441.371094 L 273.691406 427.132813 L 275.984375 426.5625 L 283.132813 434.878906 L 280.761719 425.371094 L 282.957031 424.824219 L 286.507813 439.0625 L 284.136719 439.652344 L 277.121094 431.539063 L 279.4375 440.824219 Z M 288.921875 438.21875 L 284.386719 424.265625 L 292.878906 421.503906 L 293.648438 423.867188 L 287.457031 425.878906 L 288.464844 428.972656 L 294.214844 427.101563 L 294.976563 429.449219 L 289.226563 431.320313 L 290.460938 435.117188 L 296.859375 433.039063 L 297.621094 435.390625 Z M 297.042969 430.277344 L 299.117188 429.089844 C 300.09375 430.710938 301.265625 431.234375 302.632813 430.65625 C 303.304688 430.371094 303.761719 429.96875 303.996094 429.449219 C 304.238281 428.929688 304.242188 428.414063 304.023438 427.890625 C 303.890625 427.582031 303.714844 427.347656 303.488281 427.191406 C 303.261719 427.035156 302.980469 426.945313 302.644531 426.925781 C 302.308594 426.902344 301.542969 426.957031 300.339844 427.082031 C 299.265625 427.195313 298.433594 427.179688 297.851563 427.027344 C 297.265625 426.878906 296.722656 426.585938 296.230469 426.148438 C 295.734375 425.707031 295.355469 425.171875 295.085938 424.539063 C 294.773438 423.800781 294.660156 423.066406 294.742188 422.335938 C 294.828125 421.605469 295.101563 420.960938 295.5625 420.410156 C 296.027344 419.859375 296.6875 419.402344 297.554688 419.03125 C 298.859375 418.480469 300.023438 418.402344 301.054688 418.796875 C 302.085938 419.191406 302.902344 420.039063 303.5 421.339844 L 301.316406 422.40625 C 300.90625 421.722656 300.480469 421.304688 300.03125 421.15625 C 299.585938 421.007813 299.058594 421.058594 298.457031 421.316406 C 297.855469 421.570313 297.445313 421.894531 297.226563 422.28125 C 297.007813 422.671875 296.976563 423.054688 297.136719 423.429688 C 297.292969 423.796875 297.570313 424.042969 297.972656 424.171875 C 298.378906 424.300781 299.171875 424.285156 300.359375 424.136719 C 301.625 423.984375 302.582031 423.984375 303.234375 424.132813 C 303.886719 424.277344 304.46875 424.578125 304.972656 425.035156 C 305.480469 425.492188 305.902344 426.125 306.246094 426.933594 C 306.746094 428.109375 306.800781 429.246094 306.421875 430.351563 C 306.035156 431.457031 305.078125 432.335938 303.542969 432.988281 C 300.828125 434.140625 298.660156 433.238281 297.042969 430.277344 Z M 309.761719 429.878906 L 303.101563 416.800781 L 305.257813 415.703125 L 311.921875 428.777344 Z M 323.25 422.316406 L 320.960938 423.636719 L 318.382813 421.273438 L 314.222656 423.675781 L 315.03125 427.058594 L 312.792969 428.351563 L 309.515625 413.300781 L 311.742188 412.011719 Z M 316.472656 419.523438 L 312.316406 415.632813 L 313.628906 421.164063 Z M 316.472656 419.523438 "/>
</g>
</svg>
